Steps-Mono.ufo
<glyph name="exclam" format="1">
  <advance width="500"/>
  <unicode hex="0021"/>
  <outline>
    <contour>
      <point x="322" y="790" type="line"/>
      <point x="178" y="790" type="line"/>
      <point x="178" y="687" type="line"/>
      <point x="212" y="200" type="line"/>
      <point x="288" y="200" type="line"/>
      <point x="322" y="687" type="line"/>
    </contour>
    <contour>
      <point x="322" y="137" type="line"/>
      <point x="178" y="137" type="line"/>
      <point x="178" y="0" type="line"/>
      <point x="322" y="0" type="line"/>
    </contour>
  </outline>
</glyph>
<glyph name="quotedbl" format="1">
  <advance width="500"/>
  <unicode hex="0022"/>
  <outline>
    <contour>
      <point x="207" y="790" type="line"/>
      <point x="112" y="790" type="line"/>
      <point x="112" y="711" type="line"/>
      <point x="122" y="513" type="line"/>
      <point x="197" y="513" type="line"/>
      <point x="207" y="710" type="line"/>
    </contour>
    <contour>
      <point x="385" y="790" type="line"/>
      <point x="290" y="790" type="line"/>
      <point x="290" y="711" type="line"/>
      <point x="300" y="513" type="line"/>
      <point x="375" y="513" type="line"/>
      <point x="385" y="710" type="line"/>
    </contour>
  </outline>
</glyph>
<glyph name="numbersign" format="1">
  <advance width="500"/>
  <unicode hex="0023"/>
  <outline>
    <contour>
      <point x="344" y="274" type="line"/>
      <point x="366" y="414" type="line"/>
      <point x="444" y="414" type="line"/>
      <point x="444" y="508" type="line"/>
      <point x="380" y="508" type="line"/>
      <point x="414" y="724" type="line"/>
      <point x="363" y="724" type="line"/>
      <point x="329" y="508" type="line"/>
      <point x="234" y="508" type="line"/>
      <point x="268" y="724" type="line"/>
      <point x="217" y="724" type="line"/>
      <point x="183" y="508" type="line"/>
      <point x="91" y="508" type="line"/>
      <point x="91" y="414" type="line"/>
      <point x="169" y="414" type="line"/>
      <point x="147" y="274" type="line"/>
      <point x="69" y="274" type="line"/>
      <point x="69" y="180" type="line"/>
      <point x="132" y="180" type="line"/>
      <point x="104" y="0" type="line"/>
      <point x="155" y="0" type="line"/>
      <point x="183" y="180" type="line"/>
      <point x="278" y="180" type="line"/>
      <point x="250" y="0" type="line"/>
      <point x="301" y="0" type="line"/>
      <point x="329" y="180" type="line"/>
      <point x="422" y="180" type="line"/>
      <point x="422" y="274" type="line"/>
    </contour>
    <contour>
      <point x="220" y="414" type="line"/>
      <point x="315" y="414" type="line"/>
      <point x="293" y="274" type="line"/>
      <point x="198" y="274" type="line"/>
    </contour>
  </outline>
</glyph>
<glyph name="dollar" format="1">
  <advance width="500"/>
  <unicode hex="0024"/>
  <outline>
    <contour>
      <point x="448" y="210" type="line"/>
      <point x="432" y="228" type="line"/>
      <point x="277" y="424" type="line"/>
      <point x="277" y="652" type="line"/>
      <point x="320" y="652" type="line"/>
      <point x="341" y="634" type="line"/>
      <point x="341" y="552" type="line"/>
      <point x="442" y="552" type="line"/>
      <point x="442" y="613" type="line"/>
      <point x="355" y="700" type="line"/>
      <point x="277" y="700" type="line"/>
      <point x="277" y="807" type="line"/>
      <point x="239" y="807" type="line"/>
      <point x="239" y="700" type="line"/>
      <point x="164" y="700" type="line"/>
      <point x="77" y="613" type="line"/>
      <point x="77" y="509" type="line"/>
      <point x="239" y="312" type="line"/>
      <point x="239" y="48" type="line"/>
      <point x="193" y="48" type="line"/>
      <point x="172" y="66" type="line"/>
      <point x="172" y="147" type="line"/>
      <point x="71" y="147" type="line"/>
      <point x="71" y="87" type="line"/>
      <point x="158" y="0" type="line"/>
      <point x="239" y="0" type="line"/>
      <point x="239" y="-107" type="line"/>
      <point x="277" y="-107" type="line"/>
      <point x="277" y="0" type="line"/>
      <point x="361" y="0" type="line"/>
      <point x="448" y="87" type="line"/>
    </contour>
    <contour>
      <point x="239" y="473" type="line"/>
      <point x="178" y="550" type="line"/>
      <point x="178" y="634" type="line"/>
      <point x="199" y="652" type="line"/>
      <point x="239" y="652" type="line"/>
    </contour>
    <contour>
      <point x="347" y="180" type="line"/>
      <point x="347" y="66" type="line"/>
      <point x="326" y="48" type="line"/>
      <point x="277" y="48" type="line"/>
      <point x="277" y="265" type="line"/>
    </contour>
  </outline>
</glyph>
<glyph name="percent" format="1">
  <advance width="500"/>
  <unicode hex="0025"/>
  <outline>
    <contour>
      <point x="188" y="301" type="line"/>
      <point x="229" y="301" type="line"/>
      <point x="112" y="0" type="line"/>
      <point x="37" y="0" type="line"/>
    </contour>
    <contour>
      <point x="292" y="379" type="line"/>
      <point x="251" y="379" type="line"/>
      <point x="368" y="680" type="line"/>
      <point x="443" y="680" type="line"/>
    </contour>
    <contour>
      <point x="452" y="302" type="line"/>
      <point x="408" y="346" type="line"/>
      <point x="318" y="346" type="line"/>
      <point x="274" y="302" type="line"/>
      <point x="274" y="44" type="line"/>
      <point x="318" y="0" type="line"/>
      <point x="408" y="0" type="line"/>
      <point x="452" y="44" type="line"/>
    </contour>
    <contour>
      <point x="399" y="34" type="line"/>
      <point x="388" y="25" type="line"/>
      <point x="337" y="25" type="line"/>
      <point x="327" y="34" type="line"/>
      <point x="327" y="103" type="line"/>
      <point x="399" y="206" type="line"/>
    </contour>
    <contour>
      <point x="327" y="140" type="line"/>
      <point x="327" y="312" type="line"/>
      <point x="337" y="322" type="line"/>
      <point x="388" y="322" type="line"/>
      <point x="399" y="312" type="line"/>
      <point x="399" y="243" type="line"/>
    </contour>
    <contour>
      <point x="154" y="368" type="line"/>
      <point x="143" y="359" type="line"/>
      <point x="90" y="359" type="line"/>
      <point x="80" y="368" type="line"/>
      <point x="80" y="437" type="line"/>
      <point x="154" y="540" type="line"/>
    </contour>
    <contour>
      <point x="80" y="474" type="line"/>
      <point x="80" y="646" type="line"/>
      <point x="90" y="656" type="line"/>
      <point x="143" y="656" type="line"/>
      <point x="154" y="646" type="line"/>
      <point x="154" y="577" type="line"/>
    </contour>
    <contour>
      <point x="205" y="636" type="line"/>
      <point x="161" y="680" type="line"/>
      <point x="71" y="680" type="line"/>
      <point x="27" y="636" type="line"/>
      <point x="27" y="378" type="line"/>
      <point x="71" y="334" type="line"/>
      <point x="161" y="334" type="line"/>
      <point x="205" y="378" type="line"/>
    </contour>
  </outline>
</glyph>
<glyph name="ampersand" format="1">
  <advance width="500"/>
  <unicode hex="0026"/>
  <outline>
    <contour>
      <point x="407.583" y="16.498" type="line"/>
      <point x="397" y="-0.000976562" type="line"/>
      <point x="144.083" y="-0.000976562" type="line"/>
      <point x="51.083" y="93.999" type="line"/>
      <point x="51.083" y="395.999" type="line"/>
      <point x="121.003" y="461.408" type="line"/>
      <point x="62.583" y="516.499" type="line"/>
      <point x="62.583" y="702.999" type="line"/>
      <point x="155.583" y="789.999" type="line"/>
      <point x="346.333" y="789.999" type="line"/>
      <point x="346.333" y="729.999" type="line"/>
      <point x="190.583" y="729.999" type="line"/>
      <point x="170.583" y="711.999" type="line"/>
      <point x="170.583" y="501.499" type="line"/>
      <point x="189.903" y="482.999" type="line"/>
      <point x="331.083" y="482.999" type="line"/>
      <point x="331.083" y="422.999" type="line"/>
      <point x="179.083" y="422.999" type="line"/>
      <point x="159.083" y="404.999" type="line"/>
      <point x="159.083" y="77.999" type="line"/>
      <point x="179.083" y="59.999" type="line"/>
      <point x="322.083" y="59.999" type="line"/>
      <point x="322.083" y="286.499" type="line"/>
      <point x="262.083" y="286.499" type="line"/>
      <point x="262.083" y="338.999" type="line"/>
      <point x="473.583" y="338.999" type="line"/>
      <point x="473.583" y="286.499" type="line"/>
      <point x="407.583" y="286.499" type="line"/>
    </contour>
  </outline>
</glyph>
<glyph name="ampersand" format="1">
  <advance width="500"/>
  <unicode hex="0026"/>
  <outline>
    <contour>
      <point x="409.25" y="16.499" type="line"/>
      <point x="398.667" y="0" type="line"/>
      <point x="145.75" y="0" type="line"/>
      <point x="52.75" y="94" type="line"/>
      <point x="52.75" y="396" type="line"/>
      <point x="122.67" y="461.409" type="line"/>
      <point x="64.25" y="516.5" type="line"/>
      <point x="64.25" y="703" type="line"/>
      <point x="157.25" y="790" type="line"/>
      <point x="348" y="790" type="line"/>
      <point x="348" y="730" type="line"/>
      <point x="192.25" y="730" type="line"/>
      <point x="172.25" y="712" type="line"/>
      <point x="172.25" y="501.5" type="line"/>
      <point x="191.57" y="483" type="line"/>
      <point x="332.75" y="483" type="line"/>
      <point x="332.75" y="423" type="line"/>
      <point x="180.75" y="423" type="line"/>
      <point x="160.75" y="405" type="line"/>
      <point x="160.75" y="78" type="line"/>
      <point x="180.75" y="60" type="line"/>
      <point x="323.75" y="60" type="line"/>
      <point x="323.75" y="286.5" type="line"/>
      <point x="263.75" y="286.5" type="line"/>
      <point x="263.75" y="339" type="line"/>
      <point x="475.25" y="339" type="line"/>
      <point x="475.25" y="286.5" type="line"/>
      <point x="409.25" y="286.5" type="line"/>
    </contour>
  </outline>
</glyph>
<glyph name="quotesingle" format="1">
  <advance width="500"/>
  <unicode hex="0027"/>
  <outline>
    <contour>
      <point x="330" y="790" type="line"/>
      <point x="235" y="790" type="line"/>
      <point x="235" y="711" type="line"/>
      <point x="245" y="513" type="line"/>
      <point x="320" y="513" type="line"/>
      <point x="330" y="710" type="line"/>
    </contour>
  </outline>
</glyph>
<glyph name="parenleft" format="1">
  <advance width="500"/>
  <unicode hex="0028"/>
  <outline>
    <contour>
      <point x="373" y="-130" type="line"/>
      <point x="227" y="-130"/>
      <point x="105" y="56"/>
      <point x="105" y="293" type="curve" smooth="yes"/>
      <point x="105" y="530"/>
      <point x="227" y="716"/>
      <point x="373" y="716" type="curve"/>
      <point x="373" y="756" type="line"/>
      <point x="203" y="756"/>
      <point x="65" y="544"/>
      <point x="65" y="293" type="curve" smooth="yes"/>
      <point x="65" y="42"/>
      <point x="203" y="-170"/>
      <point x="373" y="-170" type="curve"/>
    </contour>
  </outline>
</glyph>
<glyph name="parenright" format="1">
  <advance width="500"/>
  <unicode hex="0029"/>
  <outline>
    <contour>
      <point x="104" y="-170" type="line"/>
      <point x="274" y="-170"/>
      <point x="412" y="42"/>
      <point x="412" y="293" type="curve" smooth="yes"/>
      <point x="412" y="544"/>
      <point x="274" y="756"/>
      <point x="104" y="756" type="curve"/>
      <point x="104" y="716" type="line"/>
      <point x="250" y="716"/>
      <point x="372" y="530"/>
      <point x="372" y="293" type="curve" smooth="yes"/>
      <point x="372" y="56"/>
      <point x="250" y="-130"/>
      <point x="104" y="-130" type="curve"/>
    </contour>
  </outline>
</glyph>
<glyph name="asterisk" format="1">
  <advance width="500"/>
  <unicode hex="002A"/>
  <outline>
    <contour>
      <point x="289" y="790" type="line"/>
      <point x="289" y="710" type="line"/>
      <point x="279" y="513" type="line"/>
      <point x="204" y="513" type="line"/>
      <point x="194" y="711" type="line"/>
      <point x="194" y="790" type="line"/>
    </contour>
  </outline>
</glyph>
<glyph name="plus" format="1">
  <advance width="500"/>
  <unicode hex="002B"/>
  <outline>
    <contour>
      <point x="450" y="306" type="line"/>
      <point x="450" y="361" type="line"/>
      <point x="277" y="361" type="line"/>
      <point x="277" y="533" type="line"/>
      <point x="222" y="533" type="line"/>
      <point x="222" y="361" type="line"/>
      <point x="50" y="361" type="line"/>
      <point x="50" y="306" type="line"/>
      <point x="223" y="306" type="line"/>
      <point x="223" y="133" type="line"/>
      <point x="278" y="133" type="line"/>
      <point x="278" y="306" type="line"/>
    </contour>
  </outline>
</glyph>
<glyph name="comma" format="1">
  <advance width="500"/>
  <unicode hex="002C"/>
  <outline>
    <contour>
      <point x="322" y="122" type="line"/>
      <point x="307" y="137" type="line"/>
      <point x="193" y="137" type="line"/>
      <point x="178" y="122" type="line"/>
      <point x="178" y="15" type="line"/>
      <point x="193" y="0" type="line"/>
      <point x="278" y="0" type="line"/>
      <point x="270" y="-52"/>
      <point x="246" y="-106"/>
      <point x="188" y="-106" type="curve"/>
      <point x="188" y="-146" type="line"/>
      <point x="284" y="-146"/>
      <point x="313" y="-55"/>
      <point x="320" y="13" type="curve"/>
      <point x="322" y="15" type="line"/>
    </contour>
  </outline>
</glyph>
<glyph name="hyphen" format="1">
  <advance width="500"/>
  <unicode hex="002D"/>
  <outline>
    <contour>
      <point x="408" y="334" type="line"/>
      <point x="92" y="334" type="line"/>
      <point x="92" y="254" type="line"/>
      <point x="408" y="254" type="line"/>
    </contour>
  </outline>
</glyph>
<glyph name="slash" format="1">
  <advance width="500"/>
  <unicode hex="002F"/>
  <outline>
    <contour>
      <point x="51" y="-103" type="line"/>
      <point x="483" y="779" type="line"/>
      <point x="448" y="799" type="line"/>
      <point x="16" y="-83" type="line"/>
    </contour>
  </outline>
</glyph>
<glyph name="zero" format="1">
  <advance width="501"/>
  <unicode hex="0030"/>
  <outline>
    <contour>
      <point x="426" y="592" type="line"/>
      <point x="340" y="679" type="line"/>
      <point x="162" y="679" type="line"/>
      <point x="76" y="592" type="line"/>
      <point x="76" y="87" type="line"/>
      <point x="162" y="0" type="line"/>
      <point x="340" y="0" type="line"/>
      <point x="426" y="87" type="line"/>
    </contour>
    <contour>
      <point x="325" y="66" type="line"/>
      <point x="305" y="48" type="line"/>
      <point x="197" y="48" type="line"/>
      <point x="177" y="66" type="line"/>
      <point x="177" y="202" type="line"/>
      <point x="325" y="413" type="line"/>
    </contour>
    <contour>
      <point x="177" y="266" type="line"/>
      <point x="177" y="613" type="line"/>
      <point x="197" y="631" type="line"/>
      <point x="305" y="631" type="line"/>
      <point x="325" y="613" type="line"/>
      <point x="325" y="477" type="line"/>
    </contour>
  </outline>
</glyph>
<glyph name="one" format="1">
  <advance width="500"/>
  <unicode hex="0031"/>
  <outline>
    <contour>
      <point x="459" y="52" type="line"/>
      <point x="325" y="52" type="line"/>
      <point x="309" y="70" type="line"/>
      <point x="309" y="689" type="line"/>
      <point x="40" y="593" type="line"/>
      <point x="40" y="541" type="line"/>
      <point x="204" y="593" type="line"/>
      <point x="204" y="70" type="line"/>
      <point x="188" y="52" type="line"/>
      <point x="54" y="52" type="line"/>
      <point x="54" y="0" type="line"/>
      <point x="459" y="0" type="line"/>
    </contour>
  </outline>
</glyph>
<glyph name="two" format="1">
  <advance width="500"/>
  <unicode hex="0032"/>
  <outline>
    <contour>
      <point x="448" y="85" type="line"/>
      <point x="148" y="85" type="line"/>
      <point x="438" y="486" type="line"/>
      <point x="438" y="592" type="line"/>
      <point x="352" y="679" type="line"/>
      <point x="158" y="679" type="line"/>
      <point x="72" y="592" type="line"/>
      <point x="72" y="518" type="line"/>
      <point x="173" y="518" type="line"/>
      <point x="173" y="613" type="line"/>
      <point x="193" y="631" type="line"/>
      <point x="317" y="631" type="line"/>
      <point x="337" y="613" type="line"/>
      <point x="337" y="470" type="line"/>
      <point x="67" y="85" type="line"/>
      <point x="67" y="0" type="line"/>
      <point x="448" y="0" type="line"/>
    </contour>
  </outline>
</glyph>
<glyph name="three" format="1">
  <advance width="500"/>
  <unicode hex="0033"/>
  <outline>
    <contour>
      <point x="425" y="417" type="line"/>
      <point x="425" y="592" type="line"/>
      <point x="339" y="679" type="line"/>
      <point x="161" y="679" type="line"/>
      <point x="75" y="592" type="line"/>
      <point x="75" y="536" type="line"/>
      <point x="176" y="536" type="line"/>
      <point x="176" y="613" type="line"/>
      <point x="196" y="631" type="line"/>
      <point x="304" y="631" type="line"/>
      <point x="324" y="613" type="line"/>
      <point x="324" y="396" type="line"/>
      <point x="304" y="378" type="line"/>
      <point x="149" y="378" type="line"/>
      <point x="149" y="330" type="line"/>
      <point x="304" y="330" type="line"/>
      <point x="324" y="312" type="line"/>
      <point x="324" y="66" type="line"/>
      <point x="304" y="48" type="line"/>
      <point x="196" y="48" type="line"/>
      <point x="176" y="66" type="line"/>
      <point x="176" y="153" type="line"/>
      <point x="75" y="153" type="line"/>
      <point x="75" y="87" type="line"/>
      <point x="161" y="0" type="line"/>
      <point x="339" y="0" type="line"/>
      <point x="425" y="87" type="line"/>
      <point x="425" y="291" type="line"/>
      <point x="363" y="354" type="line"/>
    </contour>
  </outline>
</glyph>
<glyph name="four" format="1">
  <advance width="500"/>
  <unicode hex="0034"/>
  <outline>
    <contour>
      <point x="492" y="203" type="line"/>
      <point x="492" y="274" type="line"/>
      <point x="392" y="274" type="line"/>
      <point x="392" y="679" type="line"/>
      <point x="287" y="679" type="line"/>
      <point x="25" y="274" type="line"/>
      <point x="25" y="203" type="line"/>
      <point x="287" y="203" type="line"/>
      <point x="287" y="0" type="line"/>
      <point x="392" y="0" type="line"/>
      <point x="392" y="203" type="line"/>
    </contour>
    <contour>
      <point x="287" y="274" type="line"/>
      <point x="87" y="274" type="line"/>
      <point x="287" y="580" type="line"/>
    </contour>
  </outline>
</glyph>
<glyph name="five" format="1">
  <advance width="500"/>
  <unicode hex="0035"/>
  <outline>
    <contour>
      <point x="425" y="87" type="line"/>
      <point x="425" y="291" type="line"/>
      <point x="339" y="378" type="line"/>
      <point x="161" y="378" type="line"/>
      <point x="146" y="393" type="line"/>
      <point x="146" y="594" type="line"/>
      <point x="409" y="594" type="line"/>
      <point x="409" y="679" type="line"/>
      <point x="98" y="679" type="line"/>
      <point x="98" y="330" type="line"/>
      <point x="304" y="330" type="line"/>
      <point x="324" y="312" type="line"/>
      <point x="324" y="66" type="line"/>
      <point x="304" y="48" type="line"/>
      <point x="196" y="48" type="line"/>
      <point x="176" y="66" type="line"/>
      <point x="176" y="153" type="line"/>
      <point x="75" y="153" type="line"/>
      <point x="75" y="87" type="line"/>
      <point x="161" y="0" type="line"/>
      <point x="339" y="0" type="line"/>
    </contour>
  </outline>
</glyph>
<glyph name="six" format="1">
  <advance width="500"/>
  <unicode hex="0036"/>
  <outline>
    <contour>
      <point x="320" y="526" type="line"/>
      <point x="421" y="526" type="line"/>
      <point x="421" y="592" type="line"/>
      <point x="335" y="679" type="line"/>
      <point x="157" y="679" type="line"/>
      <point x="71" y="592" type="line"/>
      <point x="71" y="85" type="line"/>
      <point x="157" y="-2" type="line"/>
      <point x="335" y="-2" type="line"/>
      <point x="421" y="85" type="line"/>
      <point x="421" y="302" type="line"/>
      <point x="335" y="394" type="line"/>
      <point x="172" y="355" type="line"/>
      <point x="172" y="613" type="line"/>
      <point x="192" y="631" type="line"/>
      <point x="300" y="631" type="line"/>
      <point x="320" y="613" type="line"/>
    </contour>
    <contour>
      <point x="172" y="313" type="line"/>
      <point x="300" y="341" type="line"/>
      <point x="320" y="323" type="line"/>
      <point x="320" y="64" type="line"/>
      <point x="300" y="46" type="line"/>
      <point x="192" y="46" type="line"/>
      <point x="172" y="64" type="line"/>
    </contour>
  </outline>
</glyph>
<glyph name="seven" format="1">
  <advance width="500"/>
  <unicode hex="0037"/>
  <outline>
    <contour>
      <point x="448" y="679" type="line"/>
      <point x="52" y="679" type="line"/>
      <point x="52" y="594" type="line"/>
      <point x="356" y="594" type="line"/>
      <point x="77" y="55" type="line"/>
      <point x="77" y="0" type="line"/>
      <point x="178" y="0" type="line"/>
      <point x="178" y="53" type="line"/>
      <point x="448" y="594" type="line"/>
    </contour>
  </outline>
</glyph>
<glyph name="eight" format="1">
  <advance width="500"/>
  <unicode hex="0038"/>
  <outline>
    <contour>
      <point x="324" y="307" type="line"/>
      <point x="304" y="325" type="line"/>
      <point x="196" y="325" type="line"/>
      <point x="176" y="307" type="line"/>
      <point x="176" y="66" type="line"/>
      <point x="196" y="48" type="line"/>
      <point x="304" y="48" type="line"/>
      <point x="324" y="66" type="line"/>
    </contour>
    <contour>
      <point x="176" y="391" type="line"/>
      <point x="196" y="373" type="line"/>
      <point x="304" y="373" type="line"/>
      <point x="324" y="391" type="line"/>
      <point x="324" y="613" type="line"/>
      <point x="304" y="631" type="line"/>
      <point x="196" y="631" type="line"/>
      <point x="176" y="613" type="line"/>
    </contour>
    <contour>
      <point x="425" y="412" type="line"/>
      <point x="363" y="349" type="line"/>
      <point x="425" y="286" type="line"/>
      <point x="425" y="87" type="line"/>
      <point x="339" y="0" type="line"/>
      <point x="161" y="0" type="line"/>
      <point x="75" y="87" type="line"/>
      <point x="75" y="286" type="line"/>
      <point x="137" y="349" type="line"/>
      <point x="75" y="412" type="line"/>
      <point x="75" y="592" type="line"/>
      <point x="161" y="679" type="line"/>
      <point x="339" y="679" type="line"/>
      <point x="425" y="592" type="line"/>
    </contour>
  </outline>
</glyph>
<glyph name="nine" format="1">
  <advance width="500"/>
  <unicode hex="0039"/>
  <outline>
    <contour>
      <point x="429" y="592" type="line"/>
      <point x="343" y="679" type="line"/>
      <point x="165" y="679" type="line"/>
      <point x="79" y="592" type="line"/>
      <point x="79" y="375" type="line"/>
      <point x="165" y="283" type="line"/>
      <point x="328" y="322" type="line"/>
      <point x="328" y="64" type="line"/>
      <point x="308" y="46" type="line"/>
      <point x="200" y="46" type="line"/>
      <point x="180" y="64" type="line"/>
      <point x="180" y="151" type="line"/>
      <point x="79" y="151" type="line"/>
      <point x="79" y="85" type="line"/>
      <point x="165" y="-2" type="line"/>
      <point x="343" y="-2" type="line"/>
      <point x="429" y="85" type="line"/>
    </contour>
    <contour>
      <point x="328" y="613" type="line"/>
      <point x="328" y="364" type="line"/>
      <point x="200" y="336" type="line"/>
      <point x="180" y="354" type="line"/>
      <point x="180" y="613" type="line"/>
      <point x="200" y="631" type="line"/>
      <point x="308" y="631" type="line"/>
    </contour>
  </outline>
</glyph>
<glyph name="colon" format="1">
  <advance width="500"/>
  <unicode hex="003A"/>
  <outline>
    <contour>
      <point x="322" y="515" type="line"/>
      <point x="178" y="515" type="line"/>
      <point x="178" y="378" type="line"/>
      <point x="322" y="378" type="line"/>
    </contour>
    <contour>
      <point x="322" y="137" type="line"/>
      <point x="178" y="137" type="line"/>
      <point x="178" y="0" type="line"/>
      <point x="322" y="0" type="line"/>
    </contour>
  </outline>
</glyph>
<glyph name="semicolon" format="1">
  <advance width="500"/>
  <unicode hex="003B"/>
  <outline>
    <contour>
      <point x="307" y="137" type="line"/>
      <point x="322" y="122" type="line"/>
      <point x="322" y="15" type="line"/>
      <point x="320" y="13" type="line"/>
      <point x="313" y="-55"/>
      <point x="284" y="-146"/>
      <point x="188" y="-146" type="curve"/>
      <point x="188" y="-106" type="line"/>
      <point x="246" y="-106"/>
      <point x="270" y="-52"/>
      <point x="278" y="0" type="curve"/>
      <point x="193" y="0" type="line"/>
      <point x="178" y="15" type="line"/>
      <point x="178" y="122" type="line"/>
      <point x="193" y="137" type="line"/>
    </contour>
    <contour>
      <point x="322" y="515" type="line"/>
      <point x="322" y="378" type="line"/>
      <point x="178" y="378" type="line"/>
      <point x="178" y="515" type="line"/>
    </contour>
  </outline>
</glyph>
<glyph name="less" format="1">
  <advance width="500"/>
  <unicode hex="003C"/>
  <outline>
    <contour>
      <point x="439" y="137" type="line"/>
      <point x="153" y="302" type="line"/>
      <point x="153" y="321" type="line"/>
      <point x="439" y="487" type="line"/>
      <point x="439" y="547" type="line"/>
      <point x="52" y="315" type="line"/>
      <point x="52" y="310" type="line"/>
      <point x="439" y="79" type="line"/>
    </contour>
  </outline>
</glyph>
<glyph name="greater" format="1">
  <advance width="500"/>
  <unicode hex="003E"/>
  <outline>
    <contour>
      <point x="364" y="321" type="line"/>
      <point x="364" y="302" type="line"/>
      <point x="78" y="137" type="line"/>
      <point x="78" y="79" type="line"/>
      <point x="465" y="310" type="line"/>
      <point x="465" y="315" type="line"/>
      <point x="78" y="547" type="line"/>
      <point x="78" y="487" type="line"/>
    </contour>
  </outline>
</glyph>
<glyph name="A" format="1">
  <advance width="500"/>
  <unicode hex="0041"/>
  <outline>
    <contour>
      <point x="487" y="48" type="line"/>
      <point x="341" y="790" type="line"/>
      <point x="151" y="790" type="line"/>
      <point x="6" y="48" type="line"/>
      <point x="6" y="0" type="line"/>
      <point x="100" y="0" type="line"/>
      <point x="100" y="48" type="line"/>
      <point x="146" y="281" type="line"/>
      <point x="337" y="281" type="line"/>
      <point x="383" y="48" type="line"/>
      <point x="383" y="0" type="line"/>
      <point x="487" y="0" type="line"/>
    </contour>
    <contour>
      <point x="325" y="341" type="line"/>
      <point x="158" y="341" type="line"/>
      <point x="235" y="732" type="line"/>
      <point x="248" y="732" type="line"/>
    </contour>
    <contour>
      <point x="242" y="825" type="move" name="top"/>
    </contour>
  </outline>
</glyph>
<glyph name="B" format="1">
  <advance width="500"/>
  <unicode hex="0042"/>
  <outline>
    <contour>
      <point x="465" y="355" type="line"/>
      <point x="390" y="425" type="line"/>
      <point x="441" y="472" type="line"/>
      <point x="441" y="703" type="line"/>
      <point x="348" y="790" type="line"/>
      <point x="41" y="790" type="line"/>
      <point x="41" y="0" type="line"/>
      <point x="372" y="0" type="line"/>
      <point x="465" y="87" type="line"/>
    </contour>
    <contour>
      <point x="149" y="442" type="line"/>
      <point x="149" y="730" type="line"/>
      <point x="313" y="730" type="line"/>
      <point x="333" y="712" type="line"/>
      <point x="333" y="460" type="line"/>
      <point x="313" y="442" type="line"/>
    </contour>
    <contour>
      <point x="357" y="367" type="line"/>
      <point x="357" y="78" type="line"/>
      <point x="337" y="60" type="line"/>
      <point x="149" y="60" type="line"/>
      <point x="149" y="385" type="line"/>
      <point x="337" y="385" type="line"/>
    </contour>
  </outline>
</glyph>
<glyph name="C" format="1">
  <advance width="500"/>
  <unicode hex="0043"/>
  <outline>
    <contour>
      <point x="179" y="730" type="line"/>
      <point x="387" y="730" type="line"/>
      <point x="387" y="790" type="line"/>
      <point x="144" y="790" type="line"/>
      <point x="51" y="703" type="line"/>
      <point x="51" y="87" type="line"/>
      <point x="144" y="0" type="line"/>
      <point x="387" y="0" type="line"/>
      <point x="387" y="60" type="line"/>
      <point x="179" y="60" type="line"/>
      <point x="159" y="78" type="line"/>
      <point x="159" y="712" type="line"/>
    </contour>
    <contour>
      <point x="259" y="825" type="move" name="top"/>
    </contour>
  </outline>
</glyph>
<glyph name="D" format="1">
  <advance width="500"/>
  <unicode hex="0044"/>
  <outline>
    <contour>
      <point x="448" y="87" type="line"/>
      <point x="448" y="703" type="line"/>
      <point x="355" y="790" type="line"/>
      <point x="51" y="790" type="line"/>
      <point x="51" y="0" type="line"/>
      <point x="355" y="0" type="line"/>
    </contour>
    <contour>
      <point x="320" y="730" type="line"/>
      <point x="340" y="712" type="line"/>
      <point x="340" y="78" type="line"/>
      <point x="320" y="60" type="line"/>
      <point x="159" y="60" type="line"/>
      <point x="159" y="730" type="line"/>
    </contour>
  </outline>
</glyph>
<glyph name="E" format="1">
  <advance width="500"/>
  <unicode hex="0045"/>
  <outline>
    <contour>
      <point x="438" y="60" type="line"/>
      <point x="164" y="60" type="line"/>
      <point x="164" y="376" type="line"/>
      <point x="403" y="376" type="line"/>
      <point x="403" y="436" type="line"/>
      <point x="164" y="436" type="line"/>
      <point x="164" y="730" type="line"/>
      <point x="428" y="730" type="line"/>
      <point x="428" y="790" type="line"/>
      <point x="56" y="790" type="line"/>
      <point x="56" y="0" type="line"/>
      <point x="438" y="0" type="line"/>
    </contour>
    <contour>
      <point x="262" y="840" type="move" name="top"/>
    </contour>
  </outline>
</glyph>
<glyph name="F" format="1">
  <advance width="500"/>
  <unicode hex="0046"/>
  <outline>
    <contour>
      <point x="164" y="730" type="line"/>
      <point x="428" y="730" type="line"/>
      <point x="428" y="790" type="line"/>
      <point x="56" y="790" type="line"/>
      <point x="56" y="0" type="line"/>
      <point x="164" y="0" type="line"/>
      <point x="164" y="376" type="line"/>
      <point x="403" y="376" type="line"/>
      <point x="403" y="436" type="line"/>
      <point x="164" y="436" type="line"/>
    </contour>
  </outline>
</glyph>
<glyph name="G" format="1">
  <advance width="500"/>
  <unicode hex="0047"/>
  <outline>
    <contour>
      <point x="428" y="291" type="line"/>
      <point x="320" y="291" type="line"/>
      <point x="320" y="60" type="line"/>
      <point x="179" y="60" type="line"/>
      <point x="159" y="78" type="line"/>
      <point x="159" y="712" type="line"/>
      <point x="179" y="730" type="line"/>
      <point x="387" y="730" type="line"/>
      <point x="387" y="790" type="line"/>
      <point x="144" y="790" type="line"/>
      <point x="51" y="703" type="line"/>
      <point x="51" y="87" type="line"/>
      <point x="144" y="0" type="line"/>
      <point x="428" y="0" type="line"/>
    </contour>
  </outline>
</glyph>
<glyph name="H" format="1">
  <advance width="500"/>
  <unicode hex="0048"/>
  <outline>
    <contour>
      <point x="448" y="790" type="line"/>
      <point x="340" y="790" type="line"/>
      <point x="340" y="436" type="line"/>
      <point x="156" y="436" type="line"/>
      <point x="156" y="790" type="line"/>
      <point x="48" y="790" type="line"/>
      <point x="48" y="0" type="line"/>
      <point x="156" y="0" type="line"/>
      <point x="156" y="376" type="line"/>
      <point x="340" y="376" type="line"/>
      <point x="340" y="0" type="line"/>
      <point x="448" y="0" type="line"/>
    </contour>
  </outline>
</glyph>
<glyph name="I" format="1">
  <advance width="500"/>
  <unicode hex="0049"/>
  <outline>
    <contour>
      <point x="304" y="82" type="line"/>
      <point x="304" y="708" type="line"/>
      <point x="324" y="730" type="line"/>
      <point x="424" y="730" type="line"/>
      <point x="424" y="790" type="line"/>
      <point x="76" y="790" type="line"/>
      <point x="76" y="730" type="line"/>
      <point x="176" y="730" type="line"/>
      <point x="196" y="708" type="line"/>
      <point x="196" y="82" type="line"/>
      <point x="176" y="60" type="line"/>
      <point x="76" y="60" type="line"/>
      <point x="76" y="0" type="line"/>
      <point x="424" y="0" type="line"/>
      <point x="424" y="60" type="line"/>
      <point x="324" y="60" type="line"/>
    </contour>
  </outline>
</glyph>
<glyph name="J" format="1">
  <advance width="500"/>
  <unicode hex="004A"/>
  <outline>
    <contour>
      <point x="424" y="87" type="line"/>
      <point x="424" y="790" type="line"/>
      <point x="115" y="790" type="line"/>
      <point x="115" y="730" type="line"/>
      <point x="296" y="730" type="line"/>
      <point x="316" y="708" type="line"/>
      <point x="316" y="78" type="line"/>
      <point x="296" y="60" type="line"/>
      <point x="141" y="60" type="line"/>
      <point x="121" y="78" type="line"/>
      <point x="121" y="185" type="line"/>
      <point x="13" y="185" type="line"/>
      <point x="13" y="87" type="line"/>
      <point x="106" y="0" type="line"/>
      <point x="331" y="0" type="line"/>
    </contour>
  </outline>
</glyph>
<glyph name="K" format="1">
  <advance width="500"/>
  <unicode hex="004B"/>
  <outline>
    <contour>
      <point x="469" y="118" type="line"/>
      <point x="254" y="448" type="line"/>
      <point x="425" y="667" type="line"/>
      <point x="425" y="790" type="line"/>
      <point x="325" y="790" type="line"/>
      <point x="325" y="668" type="line"/>
      <point x="142" y="438" type="line"/>
      <point x="142" y="790" type="line"/>
      <point x="34" y="790" type="line"/>
      <point x="34" y="0" type="line"/>
      <point x="142" y="0" type="line"/>
      <point x="142" y="306" type="line"/>
      <point x="191" y="368" type="line"/>
      <point x="360" y="115" type="line"/>
      <point x="360" y="0" type="line"/>
      <point x="469" y="0" type="line"/>
    </contour>
  </outline>
</glyph>
<glyph name="L" format="1">
  <advance width="500"/>
  <unicode hex="004C"/>
  <outline>
    <contour>
      <point x="444" y="70" type="line"/>
      <point x="444" y="0" type="line"/>
      <point x="72" y="0" type="line"/>
      <point x="72" y="790" type="line"/>
      <point x="180" y="790" type="line"/>
      <point x="180" y="70" type="line"/>
    </contour>
  </outline>
</glyph>
<glyph name="M" format="1">
  <advance width="500"/>
  <unicode hex="004D"/>
  <outline>
    <contour>
      <point x="485" y="0" type="line"/>
      <point x="485" y="790" type="line"/>
      <point x="392" y="790" type="line"/>
      <point x="256" y="440" type="line"/>
      <point x="242" y="440" type="line"/>
      <point x="106" y="790" type="line"/>
      <point x="13" y="790" type="line"/>
      <point x="13" y="0" type="line"/>
      <point x="121" y="0" type="line"/>
      <point x="121" y="433" type="line"/>
      <point x="116" y="521" type="line"/>
      <point x="127" y="521" type="line"/>
      <point x="220" y="287" type="line"/>
      <point x="278" y="287" type="line"/>
      <point x="371" y="520" type="line"/>
      <point x="382" y="520" type="line"/>
      <point x="377" y="433" type="line" smooth="yes"/>
      <point x="377" y="0" type="line"/>
    </contour>
  </outline>
</glyph>
<glyph name="N" format="1">
  <advance width="500"/>
  <unicode hex="004E"/>
  <outline>
    <contour>
      <point x="462" y="0" type="line"/>
      <point x="462" y="790" type="line"/>
      <point x="354" y="790" type="line"/>
      <point x="354" y="316" type="line"/>
      <point x="358" y="218" type="line"/>
      <point x="353" y="218" type="line"/>
      <point x="325" y="306" type="line"/>
      <point x="149" y="790" type="line"/>
      <point x="41" y="790" type="line"/>
      <point x="41" y="0" type="line"/>
      <point x="149" y="0" type="line"/>
      <point x="149" y="459" type="line"/>
      <point x="145" y="554" type="line"/>
      <point x="150" y="554" type="line"/>
      <point x="178" y="470" type="line"/>
      <point x="354" y="0" type="line"/>
    </contour>
  </outline>
</glyph>
<glyph name="P" format="1">
  <advance width="500"/>
  <unicode hex="0050"/>
  <outline>
    <contour>
      <point x="465" y="703" type="line"/>
      <point x="372" y="790" type="line"/>
      <point x="41" y="790" type="line"/>
      <point x="41" y="0" type="line"/>
      <point x="149" y="0" type="line"/>
      <point x="149" y="311" type="line"/>
      <point x="372" y="311" type="line"/>
      <point x="465" y="398" type="line"/>
    </contour>
    <contour>
      <point x="357" y="712" type="line"/>
      <point x="357" y="386" type="line"/>
      <point x="337" y="368" type="line"/>
      <point x="149" y="368" type="line"/>
      <point x="149" y="730" type="line"/>
      <point x="337" y="730" type="line"/>
    </contour>
  </outline>
</glyph>
<glyph name="R" format="1">
  <advance width="500"/>
  <unicode hex="0052"/>
  <outline>
    <contour>
      <point x="462" y="68" type="line"/>
      <point x="351" y="342" type="line"/>
      <point x="438" y="423" type="line"/>
      <point x="438" y="703" type="line"/>
      <point x="345" y="790" type="line"/>
      <point x="47" y="790" type="line"/>
      <point x="47" y="0" type="line"/>
      <point x="155" y="0" type="line"/>
      <point x="155" y="336" type="line"/>
      <point x="271" y="336" type="line"/>
      <point x="347" y="59" type="line"/>
      <point x="347" y="0" type="line"/>
      <point x="462" y="0" type="line"/>
    </contour>
    <contour>
      <point x="155" y="393" type="line"/>
      <point x="155" y="730" type="line"/>
      <point x="310" y="730" type="line"/>
      <point x="330" y="712" type="line"/>
      <point x="330" y="411" type="line"/>
      <point x="310" y="393" type="line"/>
    </contour>
  </outline>
</glyph>
<glyph name="S" format="1">
  <advance width="500"/>
  <unicode hex="0053"/>
  <outline>
    <contour>
      <point x="337" y="710" type="line"/>
      <point x="337" y="620" type="line"/>
      <point x="448" y="620" type="line"/>
      <point x="448" y="687" type="line"/>
      <point x="353" y="790" type="line"/>
      <point x="158" y="790" type="line"/>
      <point x="62" y="687" type="line"/>
      <point x="62" y="552" type="line"/>
      <point x="357" y="213" type="line"/>
      <point x="357" y="80" type="line"/>
      <point x="334" y="60" type="line"/>
      <point x="172" y="60" type="line"/>
      <point x="149" y="80" type="line"/>
      <point x="149" y="169" type="line"/>
      <point x="38" y="169" type="line"/>
      <point x="38" y="103" type="line"/>
      <point x="134" y="0" type="line"/>
      <point x="372" y="0" type="line"/>
      <point x="468" y="103" type="line"/>
      <point x="468" y="258" type="line"/>
      <point x="173" y="593" type="line"/>
      <point x="173" y="710" type="line"/>
      <point x="196" y="730" type="line"/>
      <point x="314" y="730" type="line"/>
    </contour>
  </outline>
</glyph>
<glyph name="T" format="1">
  <advance width="500"/>
  <unicode hex="0054"/>
  <outline>
    <contour>
      <point x="456" y="730" type="line"/>
      <point x="456" y="790" type="line"/>
      <point x="35" y="790" type="line"/>
      <point x="35" y="730" type="line"/>
      <point x="196" y="730" type="line"/>
      <point x="196" y="0" type="line"/>
      <point x="296" y="0" type="line"/>
      <point x="296" y="730" type="line"/>
    </contour>
  </outline>
</glyph>
<glyph name="U" format="1">
  <advance width="500"/>
  <unicode hex="0055"/>
  <outline>
    <contour>
      <point x="448" y="87" type="line"/>
      <point x="448" y="790" type="line"/>
      <point x="340" y="790" type="line"/>
      <point x="340" y="78" type="line"/>
      <point x="320" y="60" type="line"/>
      <point x="179" y="60" type="line"/>
      <point x="159" y="78" type="line"/>
      <point x="159" y="790" type="line"/>
      <point x="51" y="790" type="line"/>
      <point x="51" y="87" type="line"/>
      <point x="144" y="0" type="line"/>
      <point x="355" y="0" type="line"/>
    </contour>
  </outline>
</glyph>
<glyph name="V" format="1">
  <advance width="500"/>
  <unicode hex="0056"/>
  <outline>
    <contour>
      <point x="490" y="790" type="line"/>
      <point x="396" y="790" type="line"/>
      <point x="396" y="742" type="line"/>
      <point x="260" y="51" type="line"/>
      <point x="249" y="51" type="line"/>
      <point x="113" y="742" type="line"/>
      <point x="113" y="790" type="line"/>
      <point x="9" y="790" type="line"/>
      <point x="9" y="742" type="line"/>
      <point x="155" y="0" type="line"/>
      <point x="344" y="0" type="line"/>
      <point x="490" y="742" type="line"/>
    </contour>
  </outline>
</glyph>
<glyph name="W" format="1">
  <advance width="500"/>
  <unicode hex="0057"/>
  <outline>
    <contour>
      <point x="333" y="0" type="line"/>
      <point x="416" y="0" type="line"/>
      <point x="485" y="790" type="line"/>
      <point x="377" y="790" type="line"/>
      <point x="337" y="318" type="line"/>
      <point x="326" y="318" type="line"/>
      <point x="278" y="567" type="line"/>
      <point x="220" y="567" type="line"/>
      <point x="172" y="318" type="line"/>
      <point x="161" y="318" type="line"/>
      <point x="121" y="790" type="line"/>
      <point x="13" y="790" type="line"/>
      <point x="82" y="0" type="line"/>
      <point x="165" y="0" type="line"/>
      <point x="238" y="377" type="line"/>
      <point x="260" y="377" type="line"/>
    </contour>
  </outline>
</glyph>
<glyph name="X" format="1">
  <advance width="500"/>
  <unicode hex="0058"/>
  <outline>
    <contour>
      <point x="486" y="61" type="line"/>
      <point x="309" y="392" type="line"/>
      <point x="309" y="407" type="line"/>
      <point x="463" y="718" type="line"/>
      <point x="463" y="790" type="line"/>
      <point x="364" y="790" type="line"/>
      <point x="364" y="718" type="line"/>
      <point x="277" y="520" type="line"/>
      <point x="247" y="520" type="line"/>
      <point x="160" y="718" type="line"/>
      <point x="160" y="790" type="line"/>
      <point x="39" y="790" type="line"/>
      <point x="39" y="718" type="line"/>
      <point x="193" y="407" type="line"/>
      <point x="193" y="392" type="line"/>
      <point x="16" y="61" type="line"/>
      <point x="16" y="0" type="line"/>
      <point x="114" y="0" type="line"/>
      <point x="114" y="59" type="line"/>
      <point x="223" y="280" type="line"/>
      <point x="257" y="280" type="line"/>
      <point x="366" y="59" type="line"/>
      <point x="366" y="0" type="line"/>
      <point x="486" y="0" type="line"/>
    </contour>
  </outline>
</glyph>
<glyph name="Y" format="1">
  <advance width="500"/>
  <unicode hex="0059"/>
  <outline>
    <contour>
      <point x="303" y="317" type="line"/>
      <point x="488" y="742" type="line"/>
      <point x="488" y="790" type="line"/>
      <point x="398" y="790" type="line"/>
      <point x="398" y="742" type="line"/>
      <point x="268" y="430" type="line"/>
      <point x="245" y="430" type="line"/>
      <point x="115" y="742" type="line"/>
      <point x="115" y="790" type="line"/>
      <point x="11" y="790" type="line"/>
      <point x="11" y="742" type="line"/>
      <point x="195" y="327" type="line"/>
      <point x="195" y="0" type="line"/>
      <point x="303" y="0" type="line"/>
    </contour>
  </outline>
</glyph>
<glyph name="Z" format="1">
  <advance width="500"/>
  <unicode hex="005A"/>
  <outline>
    <contour>
      <point x="468" y="60" type="line"/>
      <point x="152" y="60" type="line"/>
      <point x="459" y="730" type="line"/>
      <point x="459" y="790" type="line"/>
      <point x="55" y="790" type="line"/>
      <point x="55" y="730" type="line"/>
      <point x="336" y="730" type="line"/>
      <point x="22" y="60" type="line"/>
      <point x="22" y="0" type="line"/>
      <point x="468" y="0" type="line"/>
    </contour>
  </outline>
</glyph>
<glyph name="backslash" format="1">
  <advance width="500"/>
  <unicode hex="005C"/>
  <outline>
    <contour>
      <point x="448" y="-103" type="line"/>
      <point x="16" y="779" type="line"/>
      <point x="51" y="799" type="line"/>
      <point x="483" y="-83" type="line"/>
    </contour>
  </outline>
</glyph>
<glyph name="asciicircum" format="1">
  <advance width="500"/>
  <unicode hex="005E"/>
  <outline>
    <contour>
      <point x="241" y="683" type="line"/>
      <point x="259" y="683" type="line"/>
      <point x="409" y="423" type="line"/>
      <point x="462" y="423" type="line"/>
      <point x="252" y="774" type="line"/>
      <point x="247" y="774" type="line"/>
      <point x="37" y="423" type="line"/>
      <point x="90" y="423" type="line"/>
    </contour>
  </outline>
</glyph>
<glyph name="underscore" format="1">
  <advance width="500"/>
  <unicode hex="005F"/>
  <outline>
    <contour>
      <point x="498" y="0" type="line"/>
      <point x="498" y="-55" type="line"/>
      <point x="0" y="-55" type="line"/>
      <point x="0" y="0" type="line"/>
    </contour>
  </outline>
</glyph>
<glyph name="grave" format="1">
  <advance width="500"/>
  <unicode hex="0060"/>
  <outline>
    <contour>
      <point x="193" y="793" type="line"/>
      <point x="176" y="793" type="line"/>
      <point x="140" y="737" type="line"/>
      <point x="315" y="643" type="line"/>
      <point x="330" y="643" type="line"/>
      <point x="349" y="673" type="line"/>
    </contour>
    <contour>
      <point x="167.0" y="596.0" type="move" name="_top"/>
    </contour>
  </outline>
</glyph>
<glyph name="a" format="1">
  <advance width="500"/>
  <unicode hex="0061"/>
  <outline>
    <contour>
      <point x="422" y="514" type="line"/>
      <point x="346" y="593" type="line"/>
      <point x="153" y="593" type="line"/>
      <point x="153" y="545" type="line"/>
      <point x="306" y="545" type="line"/>
      <point x="322" y="527" type="line"/>
      <point x="322" y="316" type="line"/>
      <point x="132" y="316" type="line"/>
      <point x="54" y="176" type="line"/>
      <point x="54" y="140" type="line"/>
      <point x="132" y="0" type="line"/>
      <point x="422" y="0" type="line"/>
    </contour>
    <contour>
      <point x="322" y="48" type="line"/>
      <point x="178" y="48" type="line"/>
      <point x="148" y="147" type="line"/>
      <point x="148" y="169" type="line"/>
      <point x="178" y="268" type="line"/>
      <point x="322" y="268" type="line"/>
    </contour>
    <contour>
      <point x="256" y="608" type="move" name="top"/>
    </contour>
    <contour>
      <point x="450.0" y="10.0" type="move" name="ogonek"/>
    </contour>
  </outline>
</glyph>
<glyph name="b" format="1">
  <advance width="500"/>
  <unicode hex="0062"/>
  <outline>
    <contour>
      <point x="426" y="506" type="line"/>
      <point x="345" y="603" type="line"/>
      <point x="181" y="549" type="line"/>
      <point x="181" y="800" type="line"/>
      <point x="88" y="800" type="line"/>
      <point x="88" y="0" type="line"/>
      <point x="345" y="0" type="line"/>
      <point x="426" y="88" type="line"/>
    </contour>
    <contour>
      <point x="333" y="528" type="line"/>
      <point x="333" y="66" type="line"/>
      <point x="312" y="48" type="line"/>
      <point x="181" y="48" type="line"/>
      <point x="181" y="509" type="line"/>
      <point x="312" y="546" type="line"/>
    </contour>
  </outline>
</glyph>
<glyph name="c" format="1">
  <advance width="500"/>
  <unicode hex="0063"/>
  <outline>
    <contour>
      <point x="243" y="48" type="line"/>
      <point x="227" y="66" type="line"/>
      <point x="227" y="527" type="line"/>
      <point x="243" y="545" type="line"/>
      <point x="413" y="545" type="line"/>
      <point x="413" y="593" type="line"/>
      <point x="220" y="593" type="line"/>
      <point x="126" y="506" type="line"/>
      <point x="126" y="87" type="line"/>
      <point x="220" y="0" type="line"/>
      <point x="413" y="0" type="line"/>
      <point x="413" y="48" type="line"/>
    </contour>
  </outline>
</glyph>
<glyph name="d" format="1">
  <advance width="500"/>
  <unicode hex="0064"/>
  <outline>
    <contour>
      <point x="427" y="840" type="line"/>
      <point x="326" y="840" type="line"/>
      <point x="326" y="594" type="line"/>
      <point x="163" y="594" type="line"/>
      <point x="77" y="506" type="line"/>
      <point x="77" y="68" type="line"/>
      <point x="181" y="-14" type="line"/>
      <point x="326" y="65" type="line"/>
      <point x="326" y="0" type="line"/>
      <point x="427" y="0" type="line"/>
    </contour>
    <contour>
      <point x="326" y="111" type="line"/>
      <point x="198" y="46" type="line"/>
      <point x="178" y="64" type="line"/>
      <point x="178" y="528" type="line"/>
      <point x="198" y="546" type="line"/>
      <point x="326" y="546" type="line"/>
    </contour>
  </outline>
</glyph>
<glyph name="e" format="1">
  <advance width="500"/>
  <unicode hex="0065"/>
  <outline>
    <contour>
      <point x="429" y="521" type="line"/>
      <point x="341" y="593" type="line"/>
      <point x="180" y="593" type="line"/>
      <point x="92" y="521" type="line"/>
      <point x="92" y="72" type="line"/>
      <point x="178" y="0" type="line"/>
      <point x="413" y="0" type="line"/>
      <point x="413" y="48" type="line"/>
      <point x="208" y="48" type="line"/>
      <point x="193" y="66" type="line"/>
      <point x="193" y="294" type="line"/>
      <point x="429" y="294" type="line"/>
    </contour>
    <contour>
      <point x="328" y="341" type="line"/>
      <point x="193" y="341" type="line"/>
      <point x="193" y="527" type="line"/>
      <point x="208" y="545" type="line"/>
      <point x="313" y="545" type="line"/>
      <point x="328" y="527" type="line"/>
    </contour>
  </outline>
</glyph>
<glyph name="f" format="1">
  <advance width="500"/>
  <unicode hex="0066"/>
  <outline>
    <contour>
      <point x="416" y="546" type="line"/>
      <point x="416" y="594" type="line"/>
      <point x="246" y="594" type="line"/>
      <point x="246" y="774" type="line"/>
      <point x="267" y="792" type="line"/>
      <point x="399" y="792" type="line"/>
      <point x="399" y="840" type="line"/>
      <point x="231" y="840" type="line"/>
      <point x="146" y="752" type="line"/>
      <point x="146" y="594" type="line"/>
      <point x="24" y="594" type="line"/>
      <point x="24" y="546" type="line"/>
      <point x="146" y="546" type="line"/>
      <point x="146" y="0" type="line"/>
      <point x="246" y="0" type="line"/>
      <point x="246" y="546" type="line"/>
    </contour>
  </outline>
</glyph>
<glyph name="g" format="1">
  <advance width="500"/>
  <unicode hex="0067"/>
  <outline>
    <contour>
      <point x="416" y="505" type="line"/>
      <point x="334" y="593" type="line"/>
      <point x="159" y="593" type="line"/>
      <point x="78" y="505" type="line"/>
      <point x="78" y="87" type="line"/>
      <point x="159" y="-1" type="line"/>
      <point x="322" y="-1" type="line"/>
      <point x="322" y="-124" type="line"/>
      <point x="307" y="-142" type="line"/>
      <point x="106" y="-142" type="line"/>
      <point x="106" y="-200" type="line"/>
      <point x="311" y="-200" type="line"/>
      <point x="416" y="-111" type="line"/>
    </contour>
    <contour>
      <point x="322" y="527" type="line"/>
      <point x="322" y="65" type="line"/>
      <point x="302" y="47" type="line"/>
      <point x="192" y="47" type="line"/>
      <point x="171" y="65" type="line"/>
      <point x="171" y="527" type="line"/>
      <point x="192" y="545" type="line"/>
      <point x="302" y="545" type="line"/>
    </contour>
  </outline>
</glyph>
<glyph name="h" format="1">
  <advance width="500"/>
  <unicode hex="0068"/>
  <outline>
    <contour>
      <point x="417" y="506" type="line"/>
      <point x="335" y="594" type="line"/>
      <point x="177" y="594" type="line"/>
      <point x="177" y="840" type="line"/>
      <point x="83" y="840" type="line"/>
      <point x="83" y="0" type="line"/>
      <point x="177" y="0" type="line"/>
      <point x="177" y="546" type="line"/>
      <point x="303" y="546" type="line"/>
      <point x="323" y="528" type="line"/>
      <point x="323" y="0" type="line"/>
      <point x="417" y="0" type="line"/>
    </contour>
  </outline>
</glyph>
<glyph name="j" format="1">
  <advance width="500"/>
  <unicode hex="006A"/>
  <outline>
    <contour>
      <point x="388" y="593" type="line"/>
      <point x="388" y="-130" type="line"/>
      <point x="297" y="-199" type="line"/>
      <point x="138" y="-199" type="line"/>
      <point x="54" y="-130" type="line"/>
      <point x="54" y="-65" type="line"/>
      <point x="147" y="-65" type="line"/>
      <point x="147" y="-133" type="line"/>
      <point x="163" y="-151" type="line"/>
      <point x="272" y="-151" type="line"/>
      <point x="288" y="-133" type="line"/>
      <point x="288" y="530" type="line"/>
      <point x="273" y="545" type="line"/>
      <point x="102" y="545" type="line"/>
      <point x="102" y="593" type="line"/>
    </contour>
    <contour>
      <point x="399" y="831" type="line"/>
      <point x="399" y="693" type="line"/>
      <point x="271" y="693" type="line"/>
      <point x="271" y="831" type="line"/>
    </contour>
  </outline>
</glyph>
<glyph name="k" format="1">
  <advance width="500"/>
  <unicode hex="006B"/>
  <outline>
    <contour>
      <point x="457" y="76" type="line"/>
      <point x="277" y="348" type="line"/>
      <point x="439" y="528" type="line"/>
      <point x="439" y="594" type="line"/>
      <point x="339" y="594" type="line"/>
      <point x="339" y="524" type="line"/>
      <point x="156" y="320" type="line"/>
      <point x="156" y="840" type="line"/>
      <point x="55" y="840" type="line"/>
      <point x="55" y="0" type="line"/>
      <point x="156" y="0" type="line"/>
      <point x="156" y="214" type="line"/>
      <point x="210" y="273" type="line"/>
      <point x="356" y="56" type="line"/>
      <point x="356" y="0" type="line"/>
      <point x="456" y="0" type="line"/>
    </contour>
  </outline>
</glyph>
<glyph name="l" format="1">
  <advance width="500"/>
  <unicode hex="006C"/>
  <outline>
    <contour>
      <point x="455" y="48" type="line"/>
      <point x="455" y="0" type="line"/>
      <point x="55" y="0" type="line"/>
      <point x="55" y="48" type="line"/>
      <point x="189" y="48" type="line"/>
      <point x="205" y="66" type="line"/>
      <point x="205" y="774" type="line"/>
      <point x="189" y="792" type="line"/>
      <point x="73" y="792" type="line"/>
      <point x="73" y="840" type="line"/>
      <point x="305" y="840" type="line"/>
      <point x="305" y="66" type="line"/>
      <point x="321" y="48" type="line"/>
    </contour>
  </outline>
</glyph>
<glyph name="m" format="1">
  <advance width="500"/>
  <unicode hex="006D"/>
  <outline>
    <contour>
      <point x="457" y="505" type="line"/>
      <point x="376" y="593" type="line"/>
      <point x="39" y="593" type="line"/>
      <point x="39" y="0" type="line"/>
      <point x="140" y="0" type="line"/>
      <point x="140" y="545" type="line"/>
      <point x="192" y="545" type="line"/>
      <point x="208" y="530" type="line"/>
      <point x="208" y="0" type="line"/>
      <point x="284" y="0" type="line"/>
      <point x="284" y="545" type="line"/>
      <point x="336" y="545" type="line"/>
      <point x="356" y="527" type="line"/>
      <point x="356" y="0" type="line"/>
      <point x="457" y="0" type="line"/>
    </contour>
  </outline>
</glyph>
<glyph name="n" format="1">
  <advance width="500"/>
  <unicode hex="006E"/>
  <outline>
    <contour>
      <point x="78" y="593" type="line"/>
      <point x="78" y="0" type="line"/>
      <point x="179" y="0" type="line"/>
      <point x="179" y="545" type="line"/>
      <point x="300" y="545" type="line"/>
      <point x="321" y="527" type="line"/>
      <point x="321" y="0" type="line"/>
      <point x="422" y="0" type="line"/>
      <point x="422" y="506" type="line"/>
      <point x="328" y="593" type="line"/>
    </contour>
  </outline>
</glyph>
<glyph name="p" format="1">
  <advance width="500"/>
  <unicode hex="0070"/>
  <outline>
    <contour>
      <point x="426" y="506" type="line"/>
      <point x="338" y="594" type="line"/>
      <point x="74" y="594" type="line"/>
      <point x="74" y="-199" type="line"/>
      <point x="174" y="-199" type="line"/>
      <point x="174" y="0" type="line"/>
      <point x="338" y="0" type="line"/>
      <point x="426" y="88" type="line"/>
    </contour>
    <contour>
      <point x="326" y="528" type="line"/>
      <point x="326" y="66" type="line"/>
      <point x="305" y="48" type="line"/>
      <point x="195" y="48" type="line"/>
      <point x="174" y="66" type="line"/>
      <point x="174" y="546" type="line"/>
      <point x="305" y="546" type="line"/>
    </contour>
  </outline>
</glyph>
<glyph name="q" format="1">
  <advance width="500"/>
  <unicode hex="0071"/>
  <outline>
    <contour>
      <point x="419" y="595" type="line"/>
      <point x="162" y="595" type="line"/>
      <point x="81" y="507" type="line"/>
      <point x="81" y="89" type="line"/>
      <point x="162" y="1" type="line"/>
      <point x="326" y="1" type="line"/>
      <point x="326" y="-198" type="line"/>
      <point x="419" y="-198" type="line"/>
    </contour>
    <contour>
      <point x="326" y="547" type="line"/>
      <point x="326" y="67" type="line"/>
      <point x="305" y="49" type="line"/>
      <point x="195" y="49" type="line"/>
      <point x="174" y="67" type="line"/>
      <point x="174" y="529" type="line"/>
      <point x="195" y="547" type="line"/>
    </contour>
  </outline>
</glyph>
<glyph name="r" format="1">
  <advance width="500"/>
  <unicode hex="0072"/>
  <outline>
    <contour>
      <point x="377" y="532" type="line"/>
      <point x="377" y="421" type="line"/>
      <point x="478" y="421" type="line"/>
      <point x="478" y="525" type="line"/>
      <point x="347" y="608" type="line"/>
      <point x="238" y="525" type="line"/>
      <point x="238" y="594" type="line"/>
      <point x="59" y="594" type="line"/>
      <point x="59" y="546" type="line"/>
      <point x="138" y="546" type="line"/>
      <point x="138" y="48" type="line"/>
      <point x="49" y="48" type="line"/>
      <point x="49" y="0" type="line"/>
      <point x="397" y="0" type="line"/>
      <point x="397" y="48" type="line"/>
      <point x="239" y="48" type="line"/>
      <point x="239" y="477" type="line"/>
      <point x="342" y="554" type="line"/>
    </contour>
    <contour>
      <point x="302" y="665" type="move" name="top"/>
    </contour>
  </outline>
</glyph>
<glyph name="s" format="1">
  <advance width="500"/>
  <unicode hex="0073"/>
  <outline>
    <contour>
      <point x="331" y="527" type="line"/>
      <point x="331" y="445" type="line"/>
      <point x="432" y="445" type="line"/>
      <point x="432" y="506" type="line"/>
      <point x="345" y="593" type="line"/>
      <point x="187" y="593" type="line"/>
      <point x="100" y="506" type="line"/>
      <point x="100" y="402" type="line"/>
      <point x="337" y="180" type="line"/>
      <point x="337" y="66" type="line"/>
      <point x="316" y="48" type="line"/>
      <point x="203" y="48" type="line"/>
      <point x="182" y="66" type="line"/>
      <point x="182" y="147" type="line"/>
      <point x="81" y="147" type="line"/>
      <point x="81" y="87" type="line"/>
      <point x="168" y="0" type="line"/>
      <point x="351" y="0" type="line"/>
      <point x="438" y="87" type="line"/>
      <point x="438" y="210" type="line"/>
      <point x="422" y="228" type="line"/>
      <point x="201" y="443" type="line"/>
      <point x="201" y="527" type="line"/>
      <point x="222" y="545" type="line"/>
      <point x="310" y="545" type="line"/>
    </contour>
  </outline>
</glyph>
<glyph name="t" format="1">
  <advance width="500"/>
  <unicode hex="0074"/>
  <outline>
    <contour>
      <point x="233" y="545" type="line"/>
      <point x="416" y="545" type="line"/>
      <point x="416" y="593" type="line"/>
      <point x="233" y="593" type="line"/>
      <point x="233" y="748" type="line"/>
      <point x="132" y="748" type="line"/>
      <point x="132" y="593" type="line"/>
      <point x="24" y="593" type="line"/>
      <point x="24" y="545" type="line"/>
      <point x="132" y="545" type="line"/>
      <point x="132" y="87" type="line"/>
      <point x="221" y="0" type="line"/>
      <point x="416" y="0" type="line"/>
      <point x="416" y="48" type="line"/>
      <point x="254" y="48" type="line"/>
      <point x="233" y="66" type="line"/>
    </contour>
  </outline>
</glyph>
<glyph name="u" format="1">
  <advance width="500"/>
  <unicode hex="0075"/>
  <outline>
    <contour>
      <point x="430" y="87" type="line"/>
      <point x="342" y="0" type="line"/>
      <point x="166" y="0" type="line"/>
      <point x="78" y="87" type="line"/>
      <point x="78" y="593" type="line"/>
      <point x="178" y="593" type="line"/>
      <point x="178" y="66" type="line"/>
      <point x="199" y="48" type="line"/>
      <point x="309" y="48" type="line"/>
      <point x="330" y="66" type="line"/>
      <point x="330" y="593" type="line"/>
      <point x="430" y="593" type="line"/>
    </contour>
  </outline>
</glyph>
<glyph name="v" format="1">
  <advance width="500"/>
  <unicode hex="0076"/>
  <outline>
    <contour>
      <point x="457" y="537" type="line"/>
      <point x="457" y="593" type="line"/>
      <point x="357" y="593" type="line"/>
      <point x="357" y="537" type="line"/>
      <point x="265" y="48" type="line"/>
      <point x="244" y="48" type="line"/>
      <point x="145" y="537" type="line"/>
      <point x="145" y="593" type="line"/>
      <point x="43" y="593" type="line"/>
      <point x="45" y="537" type="line"/>
      <point x="165" y="0" type="line"/>
      <point x="331" y="0" type="line"/>
    </contour>
  </outline>
</glyph>
<glyph name="w" format="1">
  <advance width="500"/>
  <unicode hex="0077"/>
  <outline>
    <contour>
      <point x="474" y="593" type="line"/>
      <point x="375" y="593" type="line"/>
      <point x="375" y="537" type="line"/>
      <point x="323" y="92" type="line"/>
      <point x="274" y="537" type="line"/>
      <point x="274" y="593" type="line"/>
      <point x="203" y="593" type="line"/>
      <point x="203" y="537" type="line"/>
      <point x="221" y="400" type="line"/>
      <point x="171" y="81" type="line"/>
      <point x="117" y="537" type="line"/>
      <point x="117" y="593" type="line"/>
      <point x="18" y="593" type="line"/>
      <point x="18" y="537" type="line"/>
      <point x="96" y="0" type="line"/>
      <point x="199" y="0" type="line"/>
      <point x="243" y="229" type="line"/>
      <point x="272" y="0" type="line"/>
      <point x="390" y="0" type="line"/>
      <point x="474" y="537" type="line"/>
    </contour>
    <contour>
      <point x="239" y="665" type="move" name="top"/>
    </contour>
  </outline>
</glyph>
<glyph name="x" format="1">
  <advance width="500"/>
  <unicode hex="0078"/>
  <outline>
    <contour>
      <point x="460" y="48" type="line"/>
      <point x="304" y="295" type="line"/>
      <point x="304" y="308" type="line"/>
      <point x="444" y="537" type="line"/>
      <point x="444" y="593" type="line"/>
      <point x="354" y="593" type="line"/>
      <point x="354" y="537" type="line"/>
      <point x="276" y="395" type="line"/>
      <point x="246" y="395" type="line"/>
      <point x="168" y="537" type="line"/>
      <point x="168" y="593" type="line"/>
      <point x="58" y="593" type="line"/>
      <point x="58" y="537" type="line"/>
      <point x="198" y="308" type="line"/>
      <point x="198" y="295" type="line"/>
      <point x="42" y="48" type="line"/>
      <point x="42" y="0" type="line"/>
      <point x="131" y="0" type="line"/>
      <point x="131" y="46" type="line"/>
      <point x="225" y="206" type="line"/>
      <point x="257" y="206" type="line"/>
      <point x="351" y="46" type="line"/>
      <point x="351" y="0" type="line"/>
      <point x="460" y="0" type="line"/>
    </contour>
  </outline>
</glyph>
<glyph name="y" format="1">
  <advance width="500"/>
  <unicode hex="0079"/>
  <outline>
    <contour>
      <point x="454" y="537" type="line"/>
      <point x="454" y="593" type="line"/>
      <point x="353" y="593" type="line"/>
      <point x="353" y="537" type="line"/>
      <point x="271" y="48" type="line"/>
      <point x="255" y="48" type="line"/>
      <point x="144" y="537" type="line"/>
      <point x="144" y="593" type="line"/>
      <point x="42" y="593" type="line"/>
      <point x="44" y="537" type="line"/>
      <point x="176" y="0" type="line"/>
      <point x="251" y="0" type="line"/>
      <point x="195" y="-240" type="line"/>
      <point x="292" y="-240" type="line"/>
      <point x="343" y="0" type="line"/>
    </contour>
    <contour>
      <point x="266" y="665" type="move" name="top"/>
    </contour>
  </outline>
</glyph>
<glyph name="z" format="1">
  <advance width="500"/>
  <unicode hex="007A"/>
  <outline>
    <contour>
      <point x="427" y="48" type="line"/>
      <point x="173" y="48" type="line"/>
      <point x="421" y="545" type="line"/>
      <point x="420" y="545" type="line"/>
      <point x="420" y="593" type="line"/>
      <point x="84" y="593" type="line"/>
      <point x="84" y="545" type="line"/>
      <point x="312" y="545" type="line"/>
      <point x="59" y="48" type="line"/>
      <point x="59" y="0" type="line"/>
      <point x="427" y="0" type="line"/>
    </contour>
  </outline>
</glyph>
<glyph name="exclamdown" format="1">
  <advance width="500"/>
  <unicode hex="00A1"/>
  <outline>
    <contour>
      <point x="178" y="593" type="line"/>
      <point x="178" y="456" type="line"/>
      <point x="322" y="456" type="line"/>
      <point x="322" y="593" type="line"/>
    </contour>
    <contour>
      <point x="178" y="-94" type="line"/>
      <point x="178" y="-197" type="line"/>
      <point x="322" y="-197" type="line"/>
      <point x="322" y="-94" type="line"/>
      <point x="288" y="393" type="line"/>
      <point x="212" y="393" type="line"/>
    </contour>
  </outline>
</glyph>
<glyph name="cent" format="1">
  <advance width="500"/>
  <unicode hex="00A2"/>
  <outline>
    <contour>
      <point x="272" y="716" type="line"/>
      <point x="272" y="-98" type="line"/>
      <point x="312" y="-98" type="line"/>
      <point x="312" y="716" type="line"/>
    </contour>
    <contour>
      <point x="186" y="48" type="line"/>
      <point x="170" y="66" type="line"/>
      <point x="170" y="552" type="line"/>
      <point x="186" y="570" type="line"/>
      <point x="434" y="570" type="line"/>
      <point x="434" y="618" type="line"/>
      <point x="161" y="618" type="line"/>
      <point x="67" y="531" type="line"/>
      <point x="67" y="87" type="line"/>
      <point x="161" y="0" type="line"/>
      <point x="434" y="0" type="line"/>
      <point x="434" y="48" type="line"/>
    </contour>
  </outline>
</glyph>
<glyph name="sterling" format="1">
  <advance width="500"/>
  <unicode hex="00A3"/>
  <outline>
    <contour>
      <point x="435" y="534" type="line"/>
      <point x="435" y="594" type="line"/>
      <point x="349" y="681" type="line"/>
      <point x="221" y="681" type="line"/>
      <point x="131" y="594" type="line"/>
      <point x="131" y="538" type="line"/>
      <point x="236" y="538" type="line"/>
      <point x="236" y="615" type="line"/>
      <point x="256" y="633" type="line"/>
      <point x="314" y="633" type="line"/>
      <point x="334" y="615" type="line"/>
      <point x="334" y="534" type="line"/>
    </contour>
    <contour>
      <point x="454" y="64" type="line"/>
      <point x="236" y="64" type="line"/>
      <point x="236" y="616" type="line"/>
      <point x="131" y="568" type="line"/>
      <point x="131" y="2" type="line"/>
      <point x="454" y="2" type="line"/>
    </contour>
    <contour>
      <point x="41" y="239" type="line"/>
      <point x="373" y="239" type="line"/>
      <point x="373" y="279" type="line"/>
      <point x="41" y="279" type="line"/>
    </contour>
    <contour>
      <point x="60" y="329" type="line"/>
      <point x="392" y="329" type="line"/>
      <point x="392" y="369" type="line"/>
      <point x="60" y="369" type="line"/>
    </contour>
  </outline>
</glyph>
<glyph name="yen" format="1">
  <advance width="500"/>
  <unicode hex="00A5"/>
  <outline>
    <contour>
      <point x="46" y="312" type="line"/>
      <point x="452" y="312" type="line"/>
      <point x="452" y="352" type="line"/>
      <point x="46" y="352" type="line"/>
    </contour>
    <contour>
      <point x="302" y="280" type="line"/>
      <point x="487" y="632" type="line"/>
      <point x="487" y="680" type="line"/>
      <point x="399" y="680" type="line"/>
      <point x="399" y="632" type="line"/>
      <point x="269" y="393" type="line"/>
      <point x="245" y="393" type="line"/>
      <point x="115" y="632" type="line"/>
      <point x="115" y="680" type="line"/>
      <point x="13" y="680" type="line"/>
      <point x="13" y="632" type="line"/>
      <point x="197" y="290" type="line"/>
      <point x="197" y="0" type="line"/>
      <point x="302" y="0" type="line"/>
    </contour>
    <contour>
      <point x="46" y="222" type="line"/>
      <point x="452" y="222" type="line"/>
      <point x="452" y="262" type="line"/>
      <point x="46" y="262" type="line"/>
    </contour>
  </outline>
</glyph>
<glyph name="dieresis" format="1">
  <advance width="500"/>
  <unicode hex="00A8"/>
  <outline>
    <contour>
      <point x="385" y="709" type="line"/>
      <point x="385" y="834" type="line"/>
      <point x="288" y="834" type="line"/>
      <point x="288" y="709" type="line"/>
    </contour>
    <contour>
      <point x="114" y="709" type="line"/>
      <point x="211" y="709" type="line"/>
      <point x="211" y="834" type="line"/>
      <point x="114" y="834" type="line"/>
    </contour>
    <contour>
      <point x="252" y="651" type="move" name="_top"/>
    </contour>
  </outline>
</glyph>
<glyph name="macron" format="1">
  <advance width="500"/>
  <unicode hex="00AF"/>
  <outline>
    <contour>
      <point x="91" y="741" type="line"/>
      <point x="383" y="741" type="line"/>
      <point x="383" y="797" type="line"/>
      <point x="91" y="797" type="line"/>
    </contour>
    <contour>
      <point x="237" y="651" type="move" name="_top"/>
    </contour>
  </outline>
</glyph>
<glyph name="acute" format="1">
  <advance width="500"/>
  <unicode hex="00B4"/>
  <outline>
    <contour>
      <point x="285" y="815" type="line"/>
      <point x="129" y="695" type="line"/>
      <point x="148" y="665" type="line"/>
      <point x="163" y="665" type="line"/>
      <point x="338" y="759" type="line"/>
      <point x="302" y="815" type="line"/>
    </contour>
    <contour>
      <point x="227.0" y="591.0" type="move" name="_top"/>
    </contour>
  </outline>
</glyph>
<glyph name="periodcentered" format="1">
  <advance width="500"/>
  <unicode hex="00B7"/>
  <outline>
    <contour>
      <point x="322" y="395" type="line"/>
      <point x="322" y="258" type="line"/>
      <point x="178" y="258" type="line"/>
      <point x="178" y="395" type="line"/>
    </contour>
  </outline>
</glyph>
<glyph name="cedilla" format="1">
  <advance width="500"/>
  <unicode hex="00B8"/>
  <outline>
    <contour>
      <point x="336" y="-147" type="line"/>
      <point x="336" y="-82" type="line"/>
      <point x="291" y="-37" type="line"/>
      <point x="204" y="-37" type="line"/>
      <point x="204" y="-62" type="line"/>
      <point x="273" y="-62" type="line"/>
      <point x="284" y="-72" type="line"/>
      <point x="284" y="-157" type="line"/>
      <point x="273" y="-167" type="line"/>
      <point x="232" y="-167" type="line"/>
      <point x="221" y="-157" type="line"/>
      <point x="221" y="-128" type="line"/>
      <point x="182" y="-128" type="line"/>
      <point x="182" y="-147" type="line"/>
      <point x="214" y="-191" type="line"/>
      <point x="291" y="-191" type="line"/>
    </contour>
    <contour>
      <point x="252" y="-18" type="move" name="_bottom"/>
    </contour>
  </outline>
</glyph>
<glyph name="Acircumflex" format="1">
  <advance width="500"/>
  <unicode hex="00C2"/>
  <outline>
    <contour>
      <point x="487" y="48" type="line"/>
      <point x="487" y="0" type="line"/>
      <point x="383" y="0" type="line"/>
      <point x="383" y="48" type="line"/>
      <point x="337" y="281" type="line"/>
      <point x="146" y="281" type="line"/>
      <point x="100" y="48" type="line"/>
      <point x="100" y="0" type="line"/>
      <point x="6" y="0" type="line"/>
      <point x="6" y="48" type="line"/>
      <point x="151" y="790" type="line"/>
      <point x="341" y="790" type="line"/>
    </contour>
    <contour>
      <point x="325" y="341" type="line"/>
      <point x="248" y="732" type="line"/>
      <point x="235" y="732" type="line"/>
      <point x="158" y="341" type="line"/>
    </contour>
    <contour>
      <point x="310" y="828" type="line"/>
      <point x="239" y="935" type="line"/>
      <point x="168" y="828" type="line"/>
      <point x="136" y="828" type="line"/>
      <point x="129" y="835" type="line"/>
      <point x="210" y="1001" type="line"/>
      <point x="268" y="1001" type="line"/>
      <point x="349" y="835" type="line"/>
      <point x="342" y="828" type="line"/>
    </contour>
  </outline>
</glyph>
<glyph name="AE" format="1">
  <advance width="500"/>
  <unicode hex="00C6"/>
  <outline>
    <contour>
      <point x="360" y="730" type="line"/>
      <point x="498" y="730" type="line"/>
      <point x="498" y="790" type="line"/>
      <point x="194" y="790" type="line"/>
      <point x="19" y="97" type="line"/>
      <point x="19" y="0" type="line"/>
      <point x="85" y="0" type="line"/>
      <point x="85" y="97" type="line"/>
      <point x="119" y="230" type="line"/>
      <point x="252" y="230" type="line"/>
      <point x="252" y="0" type="line"/>
      <point x="498" y="0" type="line"/>
      <point x="498" y="60" type="line"/>
      <point x="360" y="60" type="line"/>
      <point x="360" y="376" type="line"/>
      <point x="474" y="376" type="line"/>
      <point x="474" y="436" type="line"/>
      <point x="360" y="436" type="line"/>
    </contour>
    <contour>
      <point x="252" y="300" type="line"/>
      <point x="136" y="300" type="line"/>
      <point x="247" y="737" type="line"/>
      <point x="252" y="737" type="line"/>
    </contour>
  </outline>
</glyph>
<glyph name="AE" format="1">
  <advance width="500"/>
  <unicode hex="00C6"/>
  <outline>
    <contour>
      <point x="360" y="730" type="line"/>
      <point x="360" y="436" type="line"/>
      <point x="474" y="436" type="line"/>
      <point x="474" y="376" type="line"/>
      <point x="360" y="376" type="line"/>
      <point x="360" y="60" type="line"/>
      <point x="498" y="60" type="line"/>
      <point x="498" y="0" type="line"/>
      <point x="252" y="0" type="line"/>
      <point x="252" y="230" type="line"/>
      <point x="119" y="230" type="line"/>
      <point x="85" y="97" type="line"/>
      <point x="85" y="0" type="line"/>
      <point x="19" y="0" type="line"/>
      <point x="19" y="97" type="line"/>
      <point x="194" y="790" type="line"/>
      <point x="498" y="790" type="line"/>
      <point x="498" y="730" type="line"/>
    </contour>
    <contour>
      <point x="252" y="300" type="line"/>
      <point x="252" y="737" type="line"/>
      <point x="247" y="737" type="line"/>
      <point x="136" y="300" type="line"/>
    </contour>
  </outline>
</glyph>
<glyph name="Ccedilla" format="1">
  <advance width="500"/>
  <unicode hex="00C7"/>
  <outline>
    <contour>
      <point x="339" y="-147" type="line"/>
      <point x="294" y="-191" type="line"/>
      <point x="217" y="-191" type="line"/>
      <point x="185" y="-147" type="line"/>
      <point x="185" y="-128" type="line"/>
      <point x="224" y="-128" type="line"/>
      <point x="224" y="-157" type="line"/>
      <point x="235" y="-167" type="line"/>
      <point x="276" y="-167" type="line"/>
      <point x="287" y="-157" type="line"/>
      <point x="287" y="-72" type="line"/>
      <point x="276" y="-62" type="line"/>
      <point x="207" y="-62" type="line"/>
      <point x="207" y="-37" type="line"/>
      <point x="294" y="-38" type="line"/>
      <point x="339" y="-82" type="line"/>
    </contour>
    <contour>
      <point x="179" y="730" type="line"/>
      <point x="159" y="712" type="line"/>
      <point x="159" y="78" type="line"/>
      <point x="179" y="60" type="line"/>
      <point x="387" y="60" type="line"/>
      <point x="387" y="0" type="line"/>
      <point x="144" y="0" type="line"/>
      <point x="51" y="87" type="line"/>
      <point x="51" y="703" type="line"/>
      <point x="144" y="790" type="line"/>
      <point x="387" y="790" type="line"/>
      <point x="387" y="730" type="line"/>
    </contour>
  </outline>
</glyph>
<glyph name="Ccedilla" format="1">
  <advance width="500"/>
  <unicode hex="00C7"/>
  <outline>
    <contour>
      <point x="179" y="730" type="line"/>
      <point x="387" y="730" type="line"/>
      <point x="387" y="790" type="line"/>
      <point x="144" y="790" type="line"/>
      <point x="51" y="703" type="line"/>
      <point x="51" y="87" type="line"/>
      <point x="144" y="0" type="line"/>
      <point x="387" y="0" type="line"/>
      <point x="387" y="60" type="line"/>
      <point x="179" y="60" type="line"/>
      <point x="159" y="78" type="line"/>
      <point x="159" y="712" type="line"/>
    </contour>
    <contour>
      <point x="339" y="-147" type="line"/>
      <point x="339" y="-82" type="line"/>
      <point x="294" y="-38" type="line"/>
      <point x="207" y="-37" type="line"/>
      <point x="207" y="-62" type="line"/>
      <point x="276" y="-62" type="line"/>
      <point x="287" y="-72" type="line"/>
      <point x="287" y="-157" type="line"/>
      <point x="276" y="-167" type="line"/>
      <point x="235" y="-167" type="line"/>
      <point x="224" y="-157" type="line"/>
      <point x="224" y="-128" type="line"/>
      <point x="185" y="-128" type="line"/>
      <point x="185" y="-147" type="line"/>
      <point x="217" y="-191" type="line"/>
      <point x="294" y="-191" type="line"/>
    </contour>
  </outline>
</glyph>
<glyph name="Egrave" format="1">
  <advance width="500"/>
  <unicode hex="00C8"/>
  <outline>
    <contour>
      <point x="194" y="1029" type="line"/>
      <point x="279" y="873" type="line"/>
      <point x="255" y="850" type="line"/>
      <point x="234" y="850" type="line"/>
      <point x="110" y="975" type="line"/>
      <point x="168" y="1029" type="line"/>
    </contour>
    <contour>
      <point x="438" y="60" type="line"/>
      <point x="164" y="60" type="line"/>
      <point x="164" y="376" type="line"/>
      <point x="403" y="376" type="line"/>
      <point x="403" y="436" type="line"/>
      <point x="164" y="436" type="line"/>
      <point x="164" y="730" type="line"/>
      <point x="428" y="730" type="line"/>
      <point x="428" y="790" type="line"/>
      <point x="56" y="790" type="line"/>
      <point x="56" y="0" type="line"/>
      <point x="438" y="0" type="line"/>
    </contour>
  </outline>
</glyph>
<glyph name="Eacute" format="1">
  <advance width="500"/>
  <unicode hex="00C9"/>
  <outline>
    <contour>
      <point x="438" y="60" type="line"/>
      <point x="438" y="0" type="line"/>
      <point x="56" y="0" type="line"/>
      <point x="56" y="790" type="line"/>
      <point x="428" y="790" type="line"/>
      <point x="428" y="730" type="line"/>
      <point x="164" y="730" type="line"/>
      <point x="164" y="436" type="line"/>
      <point x="403" y="436" type="line"/>
      <point x="403" y="376" type="line"/>
      <point x="164" y="376" type="line"/>
      <point x="164" y="60" type="line"/>
    </contour>
    <contour>
      <point x="283" y="1029" type="line"/>
      <point x="309" y="1029" type="line"/>
      <point x="367" y="975" type="line"/>
      <point x="243" y="850" type="line"/>
      <point x="222" y="850" type="line"/>
      <point x="198" y="873" type="line"/>
    </contour>
  </outline>
</glyph>
<glyph name="Eacute" format="1">
  <advance width="500"/>
  <unicode hex="00C9"/>
  <outline>
    <contour>
      <point x="283" y="1029" type="line"/>
      <point x="198" y="873" type="line"/>
      <point x="222" y="850" type="line"/>
      <point x="243" y="850" type="line"/>
      <point x="367" y="975" type="line"/>
      <point x="309" y="1029" type="line"/>
    </contour>
    <contour>
      <point x="438" y="60" type="line"/>
      <point x="164" y="60" type="line"/>
      <point x="164" y="376" type="line"/>
      <point x="403" y="376" type="line"/>
      <point x="403" y="436" type="line"/>
      <point x="164" y="436" type="line"/>
      <point x="164" y="730" type="line"/>
      <point x="428" y="730" type="line"/>
      <point x="428" y="790" type="line"/>
      <point x="56" y="790" type="line"/>
      <point x="56" y="0" type="line"/>
      <point x="438" y="0" type="line"/>
    </contour>
  </outline>
</glyph>
<glyph name="Igrave" format="1">
  <advance width="500"/>
  <unicode hex="00CC"/>
  <outline>
    <contour>
      <point x="304" y="82" type="line"/>
      <point x="324" y="60" type="line"/>
      <point x="424" y="60" type="line"/>
      <point x="424" y="0" type="line"/>
      <point x="76" y="0" type="line"/>
      <point x="76" y="60" type="line"/>
      <point x="176" y="60" type="line"/>
      <point x="196" y="82" type="line"/>
      <point x="196" y="708" type="line"/>
      <point x="176" y="730" type="line"/>
      <point x="76" y="730" type="line"/>
      <point x="76" y="790" type="line"/>
      <point x="424" y="790" type="line"/>
      <point x="424" y="730" type="line"/>
      <point x="324" y="730" type="line"/>
      <point x="304" y="708" type="line"/>
    </contour>
    <contour>
      <point x="276" y="829" type="line"/>
      <point x="94" y="946" type="line"/>
      <point x="120" y="985" type="line"/>
      <point x="301" y="866" type="line"/>
    </contour>
  </outline>
</glyph>
<glyph name="Iacute" format="1">
  <advance width="500"/>
  <unicode hex="00CD"/>
  <outline>
    <contour>
      <point x="304" y="82" type="line"/>
      <point x="324" y="60" type="line"/>
      <point x="424" y="60" type="line"/>
      <point x="424" y="0" type="line"/>
      <point x="76" y="0" type="line"/>
      <point x="76" y="60" type="line"/>
      <point x="176" y="60" type="line"/>
      <point x="196" y="82" type="line"/>
      <point x="196" y="708" type="line"/>
      <point x="176" y="730" type="line"/>
      <point x="76" y="730" type="line"/>
      <point x="76" y="790" type="line"/>
      <point x="424" y="790" type="line"/>
      <point x="424" y="730" type="line"/>
      <point x="324" y="730" type="line"/>
      <point x="304" y="708" type="line"/>
    </contour>
    <contour>
      <point x="229" y="829" type="line"/>
      <point x="204" y="866" type="line"/>
      <point x="385" y="985" type="line"/>
      <point x="411" y="946" type="line"/>
    </contour>
  </outline>
</glyph>
<glyph name="Iacute" format="1">
  <advance width="500"/>
  <unicode hex="00CD"/>
  <outline>
    <contour>
      <point x="229" y="829" type="line"/>
      <point x="411" y="946" type="line"/>
      <point x="385" y="985" type="line"/>
      <point x="204" y="866" type="line"/>
    </contour>
    <contour>
      <point x="304" y="82" type="line"/>
      <point x="304" y="708" type="line"/>
      <point x="324" y="730" type="line"/>
      <point x="424" y="730" type="line"/>
      <point x="424" y="790" type="line"/>
      <point x="76" y="790" type="line"/>
      <point x="76" y="730" type="line"/>
      <point x="176" y="730" type="line"/>
      <point x="196" y="708" type="line"/>
      <point x="196" y="82" type="line"/>
      <point x="176" y="60" type="line"/>
      <point x="76" y="60" type="line"/>
      <point x="76" y="0" type="line"/>
      <point x="424" y="0" type="line"/>
      <point x="424" y="60" type="line"/>
      <point x="324" y="60" type="line"/>
    </contour>
  </outline>
</glyph>
<glyph name="Oacute" format="1">
  <advance width="500"/>
  <unicode hex="00D3"/>
  <outline>
    <contour>
      <point x="320" y="730" type="line"/>
      <point x="179" y="730" type="line"/>
      <point x="159" y="712" type="line"/>
      <point x="159" y="78" type="line"/>
      <point x="179" y="60" type="line"/>
      <point x="320" y="60" type="line"/>
      <point x="340" y="78" type="line"/>
      <point x="340" y="712" type="line"/>
    </contour>
    <contour>
      <point x="448" y="87" type="line"/>
      <point x="355" y="0" type="line"/>
      <point x="144" y="0" type="line"/>
      <point x="51" y="87" type="line"/>
      <point x="51" y="703" type="line"/>
      <point x="144" y="790" type="line"/>
      <point x="355" y="790" type="line"/>
      <point x="448" y="703" type="line"/>
    </contour>
    <contour>
      <point x="371" y="985" type="line"/>
      <point x="397" y="946" type="line"/>
      <point x="215" y="829" type="line"/>
      <point x="190" y="866" type="line"/>
    </contour>
  </outline>
</glyph>
<glyph name="Oacute" format="1">
  <advance width="500"/>
  <unicode hex="00D3"/>
  <outline>
    <contour>
      <point x="371" y="985" type="line"/>
      <point x="190" y="866" type="line"/>
      <point x="215" y="829" type="line"/>
      <point x="397" y="946" type="line"/>
    </contour>
    <contour>
      <point x="448" y="87" type="line"/>
      <point x="448" y="703" type="line"/>
      <point x="355" y="790" type="line"/>
      <point x="144" y="790" type="line"/>
      <point x="51" y="703" type="line"/>
      <point x="51" y="87" type="line"/>
      <point x="144" y="0" type="line"/>
      <point x="355" y="0" type="line"/>
    </contour>
    <contour>
      <point x="320" y="730" type="line"/>
      <point x="340" y="712" type="line"/>
      <point x="340" y="78" type="line"/>
      <point x="320" y="60" type="line"/>
      <point x="179" y="60" type="line"/>
      <point x="159" y="78" type="line"/>
      <point x="159" y="712" type="line"/>
      <point x="179" y="730" type="line"/>
    </contour>
  </outline>
</glyph>
<glyph name="Thorn" format="1">
  <advance width="500"/>
  <unicode hex="00DE"/>
  <outline>
    <contour>
      <point x="357" y="564" type="line"/>
      <point x="337" y="582" type="line"/>
      <point x="149" y="582" type="line"/>
      <point x="149" y="220" type="line"/>
      <point x="337" y="220" type="line"/>
      <point x="357" y="238" type="line"/>
    </contour>
    <contour>
      <point x="465" y="555" type="line"/>
      <point x="465" y="250" type="line"/>
      <point x="372" y="163" type="line"/>
      <point x="149" y="163" type="line"/>
      <point x="149" y="0" type="line"/>
      <point x="41" y="0" type="line"/>
      <point x="41" y="790" type="line"/>
      <point x="149" y="790" type="line"/>
      <point x="149" y="642" type="line"/>
      <point x="372" y="642" type="line"/>
    </contour>
  </outline>
</glyph>
<glyph name="Thorn" format="1">
  <advance width="500"/>
  <unicode hex="00DE"/>
  <outline>
    <contour>
      <point x="465" y="577" type="line"/>
      <point x="372" y="664" type="line"/>
      <point x="149" y="664" type="line"/>
      <point x="149" y="790" type="line"/>
      <point x="41.0" y="790.0" type="line"/>
      <point x="41.0" y="0.0" type="line"/>
      <point x="149.0" y="0.0" type="line"/>
      <point x="149" y="185" type="line"/>
      <point x="372" y="185" type="line"/>
      <point x="465" y="272" type="line"/>
    </contour>
    <contour>
      <point x="357" y="586" type="line"/>
      <point x="357" y="260" type="line"/>
      <point x="337" y="242" type="line"/>
      <point x="149" y="242" type="line"/>
      <point x="149" y="604" type="line"/>
      <point x="337" y="604" type="line"/>
    </contour>
  </outline>
</glyph>
<glyph name="acircumflex" format="1">
  <advance width="500"/>
  <unicode hex="00E2"/>
  <outline>
    <contour>
      <point x="322" y="48" type="line"/>
      <point x="322" y="268" type="line"/>
      <point x="178" y="268" type="line"/>
      <point x="148" y="169" type="line"/>
      <point x="148" y="147" type="line"/>
      <point x="178" y="48" type="line"/>
    </contour>
    <contour>
      <point x="422" y="514" type="line"/>
      <point x="422" y="0" type="line"/>
      <point x="132" y="0" type="line"/>
      <point x="54" y="140" type="line"/>
      <point x="54" y="176" type="line"/>
      <point x="132" y="316" type="line"/>
      <point x="322" y="316" type="line"/>
      <point x="322" y="527" type="line"/>
      <point x="306" y="545" type="line"/>
      <point x="153" y="545" type="line"/>
      <point x="153" y="593" type="line"/>
      <point x="346" y="593" type="line"/>
    </contour>
    <contour>
      <point x="332" y="676" type="line"/>
      <point x="276" y="787" type="line"/>
      <point x="265" y="787" type="line"/>
      <point x="209" y="676" type="line"/>
      <point x="177" y="676" type="line"/>
      <point x="170" y="683" type="line"/>
      <point x="244" y="848" type="line"/>
      <point x="297" y="848" type="line"/>
      <point x="371" y="683" type="line"/>
      <point x="364" y="676" type="line"/>
    </contour>
  </outline>
</glyph>
<glyph name="ae" format="1">
  <advance width="500"/>
  <unicode hex="00E6"/>
  <outline>
    <contour>
      <point x="460" y="268" type="line"/>
      <point x="460" y="521" type="line"/>
      <point x="383" y="593" type="line"/>
      <point x="288" y="593" type="line"/>
      <point x="253" y="552" type="line"/>
      <point x="225" y="593" type="line"/>
      <point x="86" y="593" type="line"/>
      <point x="86" y="545" type="line"/>
      <point x="185" y="545" type="line"/>
      <point x="201" y="527" type="line"/>
      <point x="201" y="316" type="line"/>
      <point x="99" y="316" type="line"/>
      <point x="36" y="176" type="line"/>
      <point x="36" y="140" type="line"/>
      <point x="99" y="0" type="line"/>
      <point x="455" y="0" type="line"/>
      <point x="455" y="48" type="line"/>
      <point x="316" y="48" type="line"/>
      <point x="301" y="66" type="line"/>
      <point x="301" y="268" type="line"/>
    </contour>
    <contour>
      <point x="370" y="527" type="line"/>
      <point x="370" y="315" type="line"/>
      <point x="301" y="315" type="line"/>
      <point x="301" y="527" type="line"/>
      <point x="316" y="545" type="line"/>
      <point x="355" y="545" type="line"/>
    </contour>
    <contour>
      <point x="201" y="268" type="line"/>
      <point x="201" y="48" type="line"/>
      <point x="140" y="48" type="line"/>
      <point x="126" y="147" type="line"/>
      <point x="126" y="169" type="line"/>
      <point x="140" y="268" type="line"/>
    </contour>
  </outline>
</glyph>
<glyph name="ccedilla" format="1">
  <advance width="500"/>
  <unicode hex="00E7"/>
  <outline>
    <contour>
      <point x="243" y="48" type="line"/>
      <point x="227" y="66" type="line"/>
      <point x="227" y="527" type="line"/>
      <point x="243" y="545" type="line"/>
      <point x="413" y="545" type="line"/>
      <point x="413" y="593" type="line"/>
      <point x="220" y="593" type="line"/>
      <point x="126" y="506" type="line"/>
      <point x="126" y="87" type="line"/>
      <point x="220" y="0" type="line"/>
      <point x="413" y="0" type="line"/>
      <point x="413" y="48" type="line"/>
    </contour>
    <contour>
      <point x="389" y="-147" type="line"/>
      <point x="389" y="-82" type="line"/>
      <point x="344" y="-37" type="line"/>
      <point x="257" y="-37" type="line"/>
      <point x="257" y="-62" type="line"/>
      <point x="326" y="-62" type="line"/>
      <point x="337" y="-72" type="line"/>
      <point x="337" y="-157" type="line"/>
      <point x="326" y="-167" type="line"/>
      <point x="285" y="-167" type="line"/>
      <point x="274" y="-157" type="line"/>
      <point x="274" y="-128" type="line"/>
      <point x="235" y="-128" type="line"/>
      <point x="235" y="-147" type="line"/>
      <point x="267" y="-191" type="line"/>
      <point x="344" y="-191" type="line"/>
    </contour>
  </outline>
</glyph>
<glyph name="egrave" format="1">
  <advance width="500"/>
  <unicode hex="00E8"/>
  <outline>
    <contour>
      <point x="212.5" y="832" type="line"/>
      <point x="297.5" y="676" type="line"/>
      <point x="273.5" y="653" type="line"/>
      <point x="252.5" y="653" type="line"/>
      <point x="128.5" y="778" type="line"/>
      <point x="186.5" y="832" type="line"/>
    </contour>
    <contour>
      <point x="429" y="521" type="line"/>
      <point x="341" y="593" type="line"/>
      <point x="180" y="593" type="line"/>
      <point x="92" y="521" type="line"/>
      <point x="92" y="72" type="line"/>
      <point x="178" y="0" type="line"/>
      <point x="413" y="0" type="line"/>
      <point x="413" y="48" type="line"/>
      <point x="208" y="48" type="line"/>
      <point x="193" y="66" type="line"/>
      <point x="193" y="294" type="line"/>
      <point x="429" y="294" type="line"/>
    </contour>
    <contour>
      <point x="328" y="341" type="line"/>
      <point x="193" y="341" type="line"/>
      <point x="193" y="527" type="line"/>
      <point x="208" y="545" type="line"/>
      <point x="313" y="545" type="line"/>
      <point x="328" y="527" type="line"/>
    </contour>
  </outline>
</glyph>
<glyph name="igrave" format="1">
  <advance width="500"/>
  <unicode hex="00EC"/>
  <outline>
    <contour>
      <point x="190" y="833" type="line"/>
      <point x="275" y="677" type="line"/>
      <point x="251" y="654" type="line"/>
      <point x="230" y="654" type="line"/>
      <point x="106" y="779" type="line"/>
      <point x="164" y="833" type="line"/>
    </contour>
    <contour>
      <point x="450" y="0" type="line"/>
      <point x="450" y="48" type="line"/>
      <point x="316" y="48" type="line"/>
      <point x="300" y="66" type="line"/>
      <point x="300" y="594" type="line"/>
      <point x="68" y="594" type="line"/>
      <point x="68" y="546" type="line"/>
      <point x="184" y="546" type="line"/>
      <point x="200" y="528" type="line"/>
      <point x="200" y="66" type="line"/>
      <point x="184" y="48" type="line"/>
      <point x="50" y="48" type="line"/>
      <point x="50" y="0" type="line"/>
    </contour>
  </outline>
</glyph>
<glyph name="iacute" format="1">
  <advance width="500"/>
  <unicode hex="00ED"/>
  <outline>
    <contour>
      <point x="450" y="0" type="line"/>
      <point x="50" y="0" type="line"/>
      <point x="50" y="48" type="line"/>
      <point x="184" y="48" type="line"/>
      <point x="200" y="66" type="line"/>
      <point x="200" y="528" type="line"/>
      <point x="184" y="546" type="line"/>
      <point x="68" y="546" type="line"/>
      <point x="68" y="594" type="line"/>
      <point x="300" y="594" type="line"/>
      <point x="300" y="66" type="line"/>
      <point x="316" y="48" type="line"/>
      <point x="450" y="48" type="line"/>
    </contour>
    <contour>
      <point x="207" y="686" type="line"/>
      <point x="268" y="848" type="line"/>
      <point x="326" y="848" type="line"/>
      <point x="344" y="833" type="line"/>
      <point x="251" y="679" type="line"/>
      <point x="214" y="679" type="line"/>
    </contour>
  </outline>
</glyph>
<glyph name="idieresis" format="1">
  <advance width="500"/>
  <unicode hex="00EF"/>
  <outline>
    <contour>
      <point x="450" y="0" type="line"/>
      <point x="50" y="0" type="line"/>
      <point x="50" y="48" type="line"/>
      <point x="184" y="48" type="line"/>
      <point x="200" y="66" type="line"/>
      <point x="200" y="528" type="line"/>
      <point x="184" y="546" type="line"/>
      <point x="68" y="546" type="line"/>
      <point x="68" y="594" type="line"/>
      <point x="300" y="594" type="line"/>
      <point x="300" y="66" type="line"/>
      <point x="316" y="48" type="line"/>
      <point x="450" y="48" type="line"/>
    </contour>
    <contour>
      <point x="362" y="723" type="line"/>
      <point x="265" y="723" type="line"/>
      <point x="265" y="848" type="line"/>
      <point x="362" y="848" type="line"/>
    </contour>
    <contour>
      <point x="91" y="723" type="line"/>
      <point x="91" y="848" type="line"/>
      <point x="188" y="848" type="line"/>
      <point x="188" y="723" type="line"/>
    </contour>
  </outline>
</glyph>
<glyph name="ograve" format="1">
  <advance width="500"/>
  <unicode hex="00F2"/>
  <outline>
    <contour>
      <point x="304" y="545" type="line"/>
      <point x="196" y="545" type="line"/>
      <point x="176" y="527" type="line"/>
      <point x="176" y="66" type="line"/>
      <point x="196" y="48" type="line"/>
      <point x="304" y="48" type="line"/>
      <point x="324" y="66" type="line"/>
      <point x="324" y="527" type="line"/>
    </contour>
    <contour>
      <point x="425" y="87" type="line"/>
      <point x="339" y="0" type="line"/>
      <point x="161" y="0" type="line"/>
      <point x="75" y="87" type="line"/>
      <point x="75" y="506" type="line"/>
      <point x="161" y="593" type="line"/>
      <point x="339" y="593" type="line"/>
      <point x="425" y="506" type="line"/>
    </contour>
    <contour>
      <point x="268" y="654" type="line"/>
      <point x="261" y="647" type="line"/>
      <point x="224" y="647" type="line"/>
      <point x="131" y="801" type="line"/>
      <point x="149" y="816" type="line"/>
      <point x="207" y="816" type="line"/>
    </contour>
  </outline>
</glyph>
<glyph name="ocircumflex" format="1">
  <advance width="500"/>
  <unicode hex="00F4"/>
  <outline>
    <contour>
      <point x="304" y="545" type="line"/>
      <point x="196" y="545" type="line"/>
      <point x="176" y="527" type="line"/>
      <point x="176" y="66" type="line"/>
      <point x="196" y="48" type="line"/>
      <point x="304" y="48" type="line"/>
      <point x="324" y="66" type="line"/>
      <point x="324" y="527" type="line"/>
    </contour>
    <contour>
      <point x="425" y="87" type="line"/>
      <point x="339" y="0" type="line"/>
      <point x="161" y="0" type="line"/>
      <point x="75" y="87" type="line"/>
      <point x="75" y="506" type="line"/>
      <point x="161" y="593" type="line"/>
      <point x="339" y="593" type="line"/>
      <point x="425" y="506" type="line"/>
    </contour>
    <contour>
      <point x="308" y="644" type="line"/>
      <point x="252" y="755" type="line"/>
      <point x="241" y="755" type="line"/>
      <point x="185" y="644" type="line"/>
      <point x="153" y="644" type="line"/>
      <point x="146" y="651" type="line"/>
      <point x="220" y="816" type="line"/>
      <point x="273" y="816" type="line"/>
      <point x="347" y="651" type="line"/>
      <point x="340" y="644" type="line"/>
    </contour>
  </outline>
</glyph>
<glyph name="odieresis" format="1">
  <advance width="500"/>
  <unicode hex="00F6"/>
  <outline>
    <contour>
      <point x="304" y="545" type="line"/>
      <point x="196" y="545" type="line"/>
      <point x="176" y="527" type="line"/>
      <point x="176" y="66" type="line"/>
      <point x="196" y="48" type="line"/>
      <point x="304" y="48" type="line"/>
      <point x="324" y="66" type="line"/>
      <point x="324" y="527" type="line"/>
    </contour>
    <contour>
      <point x="425" y="87" type="line"/>
      <point x="339" y="0" type="line"/>
      <point x="161" y="0" type="line"/>
      <point x="75" y="87" type="line"/>
      <point x="75" y="506" type="line"/>
      <point x="161" y="593" type="line"/>
      <point x="339" y="593" type="line"/>
      <point x="425" y="506" type="line"/>
    </contour>
    <contour>
      <point x="380" y="691" type="line"/>
      <point x="283" y="691" type="line"/>
      <point x="283" y="816" type="line"/>
      <point x="380" y="816" type="line"/>
    </contour>
    <contour>
      <point x="109" y="691" type="line"/>
      <point x="109" y="816" type="line"/>
      <point x="206" y="816" type="line"/>
      <point x="206" y="691" type="line"/>
    </contour>
  </outline>
</glyph>
<glyph name="thorn" format="1">
  <advance width="500"/>
  <unicode hex="00FE"/>
  <outline>
    <contour>
      <point x="195" y="48" type="line"/>
      <point x="176" y="64" type="line"/>
      <point x="176" y="546" type="line"/>
      <point x="305" y="546" type="line"/>
      <point x="326" y="528" type="line"/>
      <point x="326" y="66" type="line"/>
      <point x="305" y="48" type="line"/>
    </contour>
    <contour>
      <point x="174" y="0" type="line"/>
      <point x="338" y="0" type="line"/>
      <point x="419" y="88" type="line"/>
      <point x="419" y="506" type="line"/>
      <point x="338" y="594" type="line"/>
      <point x="176" y="594" type="line"/>
      <point x="176" y="840" type="line"/>
      <point x="81" y="840" type="line"/>
      <point x="81" y="840"/>
      <point x="81" y="-199"/>
      <point x="81" y="-199" type="curve"/>
      <point x="174" y="-199" type="line"/>
    </contour>
  </outline>
</glyph>
<glyph name="Abreve" format="1">
  <advance width="500"/>
  <unicode hex="0102"/>
  <outline>
    <contour>
      <point x="487" y="48" type="line"/>
      <point x="487" y="0" type="line"/>
      <point x="383" y="0" type="line"/>
      <point x="383" y="48" type="line"/>
      <point x="337" y="281" type="line"/>
      <point x="146" y="281" type="line"/>
      <point x="100" y="48" type="line"/>
      <point x="100" y="0" type="line"/>
      <point x="6" y="0" type="line"/>
      <point x="6" y="48" type="line"/>
      <point x="152" y="790" type="line"/>
      <point x="341" y="790" type="line"/>
    </contour>
    <contour>
      <point x="325" y="341" type="line"/>
      <point x="248" y="732" type="line"/>
      <point x="235" y="732" type="line"/>
      <point x="158" y="341" type="line"/>
    </contour>
    <contour>
      <point x="177" y="857" type="line"/>
      <point x="132" y="896" type="line"/>
      <point x="132" y="922" type="line"/>
      <point x="184" y="922" type="line"/>
      <point x="184" y="886" type="line"/>
      <point x="195" y="876" type="line"/>
      <point x="291" y="876" type="line"/>
      <point x="302" y="886" type="line"/>
      <point x="302" y="923" type="line"/>
      <point x="354" y="923" type="line"/>
      <point x="354" y="896" type="line"/>
      <point x="309" y="857" type="line"/>
    </contour>
  </outline>
</glyph>
<glyph name="Abreve" format="1">
  <advance width="500"/>
  <unicode hex="0102"/>
  <outline>
    <contour>
      <point x="177" y="857" type="line"/>
      <point x="309" y="857" type="line"/>
      <point x="354" y="896" type="line"/>
      <point x="354" y="923" type="line"/>
      <point x="302" y="923" type="line"/>
      <point x="302" y="886" type="line"/>
      <point x="291" y="876" type="line"/>
      <point x="195" y="876" type="line"/>
      <point x="184" y="886" type="line"/>
      <point x="184" y="922" type="line"/>
      <point x="132" y="922" type="line"/>
      <point x="132" y="896" type="line"/>
    </contour>
    <contour>
      <point x="487" y="48" type="line"/>
      <point x="341" y="790" type="line"/>
      <point x="152" y="790" type="line"/>
      <point x="6" y="48" type="line"/>
      <point x="6" y="0" type="line"/>
      <point x="100" y="0" type="line"/>
      <point x="100" y="48" type="line"/>
      <point x="146" y="281" type="line"/>
      <point x="337" y="281" type="line"/>
      <point x="383" y="48" type="line"/>
      <point x="383" y="0" type="line"/>
      <point x="487" y="0" type="line"/>
    </contour>
    <contour>
      <point x="325" y="341" type="line"/>
      <point x="158" y="341" type="line"/>
      <point x="235" y="732" type="line"/>
      <point x="248" y="732" type="line"/>
    </contour>
  </outline>
</glyph>
<glyph name="abreve" format="1">
  <advance width="500"/>
  <unicode hex="0103"/>
  <outline>
    <contour>
      <point x="322" y="48" type="line"/>
      <point x="322" y="268" type="line"/>
      <point x="178" y="268" type="line"/>
      <point x="148" y="169" type="line"/>
      <point x="148" y="147" type="line"/>
      <point x="178" y="48" type="line"/>
    </contour>
    <contour>
      <point x="422" y="514" type="line"/>
      <point x="422" y="0" type="line"/>
      <point x="132" y="0" type="line"/>
      <point x="54" y="140" type="line"/>
      <point x="54" y="176" type="line"/>
      <point x="132" y="316" type="line"/>
      <point x="322" y="316" type="line"/>
      <point x="322" y="527" type="line"/>
      <point x="306" y="545" type="line"/>
      <point x="153" y="545" type="line"/>
      <point x="153" y="593" type="line"/>
      <point x="346" y="593" type="line"/>
    </contour>
    <contour>
      <point x="378" y="699" type="line"/>
      <point x="333" y="660" type="line"/>
      <point x="201" y="660" type="line"/>
      <point x="156" y="699" type="line"/>
      <point x="156" y="725" type="line"/>
      <point x="208" y="725" type="line"/>
      <point x="208" y="689" type="line"/>
      <point x="219" y="679" type="line"/>
      <point x="315" y="679" type="line"/>
      <point x="326" y="689" type="line"/>
      <point x="326" y="726" type="line"/>
      <point x="378" y="726" type="line"/>
    </contour>
  </outline>
</glyph>
<glyph name="Cacute" format="1">
  <advance width="500"/>
  <unicode hex="0106"/>
  <outline>
    <contour>
      <point x="179" y="730" type="line"/>
      <point x="159" y="712" type="line"/>
      <point x="159" y="78" type="line"/>
      <point x="179" y="60" type="line"/>
      <point x="387" y="60" type="line"/>
      <point x="387" y="0" type="line"/>
      <point x="144" y="0" type="line"/>
      <point x="51" y="87" type="line"/>
      <point x="51" y="703" type="line"/>
      <point x="144" y="790" type="line"/>
      <point x="387" y="790" type="line"/>
      <point x="387" y="730" type="line"/>
    </contour>
    <contour>
      <point x="239" y="858" type="line"/>
      <point x="300" y="1020" type="line"/>
      <point x="358" y="1020" type="line"/>
      <point x="376" y="1005" type="line"/>
      <point x="283" y="851" type="line"/>
      <point x="246" y="851" type="line"/>
    </contour>
  </outline>
</glyph>
<glyph name="Ccircumflex" format="1">
  <advance width="500"/>
  <unicode hex="0108"/>
  <outline>
    <contour>
      <point x="179" y="730" type="line"/>
      <point x="159" y="712" type="line"/>
      <point x="159" y="78" type="line"/>
      <point x="179" y="60" type="line"/>
      <point x="387" y="60" type="line"/>
      <point x="387" y="0" type="line"/>
      <point x="144" y="0" type="line"/>
      <point x="51" y="87" type="line"/>
      <point x="51" y="703" type="line"/>
      <point x="144" y="790" type="line"/>
      <point x="387" y="790" type="line"/>
      <point x="387" y="730" type="line"/>
    </contour>
    <contour>
      <point x="327" y="828" type="line"/>
      <point x="256" y="935" type="line"/>
      <point x="185" y="828" type="line"/>
      <point x="153" y="828" type="line"/>
      <point x="146" y="835" type="line"/>
      <point x="227" y="1001" type="line"/>
      <point x="285" y="1001" type="line"/>
      <point x="366" y="835" type="line"/>
      <point x="359" y="828" type="line"/>
    </contour>
  </outline>
</glyph>
<glyph name="cdotaccent" format="1">
  <advance width="500"/>
  <unicode hex="010B"/>
  <outline>
    <contour>
      <point x="243" y="48" type="line"/>
      <point x="413" y="48" type="line"/>
      <point x="413" y="0" type="line"/>
      <point x="220" y="0" type="line"/>
      <point x="127" y="87" type="line"/>
      <point x="127" y="506" type="line"/>
      <point x="220" y="593" type="line"/>
      <point x="413" y="593" type="line"/>
      <point x="413" y="545" type="line"/>
      <point x="243" y="545" type="line"/>
      <point x="227" y="527" type="line"/>
      <point x="227" y="66" type="line"/>
    </contour>
    <contour>
      <point x="208" y="714" type="line"/>
      <point x="208" y="852" type="line"/>
      <point x="339" y="852" type="line"/>
      <point x="339" y="714" type="line"/>
    </contour>
  </outline>
</glyph>
<glyph name="emacron" format="1">
  <advance width="500"/>
  <unicode hex="0113"/>
  <outline>
    <contour>
      <point x="328" y="341" type="line"/>
      <point x="328" y="527" type="line"/>
      <point x="313" y="545" type="line"/>
      <point x="208" y="545" type="line"/>
      <point x="193" y="527" type="line"/>
      <point x="193" y="341" type="line"/>
    </contour>
    <contour>
      <point x="428" y="521" type="line"/>
      <point x="428" y="294" type="line"/>
      <point x="193" y="294" type="line"/>
      <point x="193" y="66" type="line"/>
      <point x="208" y="48" type="line"/>
      <point x="413" y="48" type="line"/>
      <point x="413" y="0" type="line"/>
      <point x="178" y="0" type="line"/>
      <point x="93" y="72" type="line"/>
      <point x="93" y="521" type="line"/>
      <point x="180" y="593" type="line"/>
      <point x="341" y="593" type="line"/>
    </contour>
    <contour>
      <point x="115" y="755" type="line"/>
      <point x="115" y="811" type="line"/>
      <point x="407" y="811" type="line"/>
      <point x="407" y="755" type="line"/>
    </contour>
  </outline>
</glyph>
<glyph name="gcircumflex" format="1">
  <advance width="500"/>
  <unicode hex="011D"/>
  <outline>
    <contour>
      <point x="322" y="527" type="line"/>
      <point x="302" y="545" type="line"/>
      <point x="192" y="545" type="line"/>
      <point x="171" y="527" type="line"/>
      <point x="171" y="65" type="line"/>
      <point x="192" y="47" type="line"/>
      <point x="302" y="47" type="line"/>
      <point x="322" y="65" type="line"/>
    </contour>
    <contour>
      <point x="422" y="505" type="line"/>
      <point x="422" y="-111" type="line"/>
      <point x="311" y="-200" type="line"/>
      <point x="106" y="-200" type="line"/>
      <point x="106" y="-142" type="line"/>
      <point x="307" y="-142" type="line"/>
      <point x="322" y="-124" type="line"/>
      <point x="322" y="-1" type="line"/>
      <point x="159" y="-1" type="line"/>
      <point x="71" y="87" type="line"/>
      <point x="71" y="505" type="line"/>
      <point x="159" y="593" type="line"/>
      <point x="334" y="593" type="line"/>
    </contour>
    <contour>
      <point x="308" y="676" type="line"/>
      <point x="252" y="787" type="line"/>
      <point x="241" y="787" type="line"/>
      <point x="185" y="676" type="line"/>
      <point x="153" y="676" type="line"/>
      <point x="146" y="683" type="line"/>
      <point x="220" y="848" type="line"/>
      <point x="273" y="848" type="line"/>
      <point x="347" y="683" type="line"/>
      <point x="340" y="676" type="line"/>
    </contour>
  </outline>
</glyph>
<glyph name="dotlessi" format="1">
  <advance width="500"/>
  <unicode hex="0131"/>
  <outline>
    <contour>
      <point x="450" y="0" type="line"/>
      <point x="450" y="48" type="line"/>
      <point x="316" y="48" type="line"/>
      <point x="300" y="66" type="line"/>
      <point x="300" y="594" type="line"/>
      <point x="68" y="594" type="line"/>
      <point x="68" y="546" type="line"/>
      <point x="184" y="546" type="line"/>
      <point x="200" y="528" type="line"/>
      <point x="200" y="66" type="line"/>
      <point x="184" y="48" type="line"/>
      <point x="50" y="48" type="line"/>
      <point x="50" y="0" type="line"/>
    </contour>
  </outline>
</glyph>
<glyph name="Ldot" format="1">
  <advance width="500"/>
  <unicode hex="013F"/>
  <outline>
    <contour>
      <point x="436" y="498" type="line"/>
      <point x="436" y="361" type="line"/>
      <point x="292" y="361" type="line"/>
      <point x="292" y="498" type="line"/>
    </contour>
    <contour>
      <point x="444" y="70" type="line"/>
      <point x="444" y="0" type="line"/>
      <point x="72" y="0" type="line"/>
      <point x="72" y="790" type="line"/>
      <point x="180" y="790" type="line"/>
      <point x="180" y="70" type="line"/>
    </contour>
  </outline>
</glyph>
<glyph name="ncaron" format="1">
  <advance width="500"/>
  <unicode hex="0148"/>
  <outline>
    <contour>
      <point x="78" y="593" type="line"/>
      <point x="328" y="593" type="line"/>
      <point x="422" y="506" type="line"/>
      <point x="422" y="0" type="line"/>
      <point x="321" y="0" type="line"/>
      <point x="321" y="527" type="line"/>
      <point x="300" y="545" type="line"/>
      <point x="179" y="545" type="line"/>
      <point x="179" y="0" type="line"/>
      <point x="78" y="0" type="line"/>
    </contour>
    <contour>
      <point x="222" y="676" type="line"/>
      <point x="148" y="841" type="line"/>
      <point x="155" y="848" type="line"/>
      <point x="187" y="848" type="line"/>
      <point x="243" y="737" type="line"/>
      <point x="254" y="737" type="line"/>
      <point x="310" y="848" type="line"/>
      <point x="342" y="848" type="line"/>
      <point x="349" y="841" type="line"/>
      <point x="275" y="676" type="line"/>
    </contour>
  </outline>
</glyph>
<glyph name="OE" format="1">
  <advance width="500"/>
  <unicode hex="0152"/>
  <outline>
    <contour>
      <point x="231" y="712" type="line"/>
      <point x="211" y="730" type="line"/>
      <point x="138" y="730" type="line"/>
      <point x="118" y="712" type="line"/>
      <point x="118" y="78" type="line"/>
      <point x="138" y="60" type="line"/>
      <point x="211" y="60" type="line"/>
      <point x="231" y="78" type="line"/>
    </contour>
    <contour>
      <point x="493" y="60" type="line"/>
      <point x="493" y="0" type="line"/>
      <point x="103" y="0" type="line"/>
      <point x="10" y="87" type="line"/>
      <point x="10" y="703" type="line"/>
      <point x="103" y="790" type="line"/>
      <point x="483" y="790" type="line"/>
      <point x="483" y="730" type="line"/>
      <point x="339" y="730" type="line"/>
      <point x="339" y="436" type="line"/>
      <point x="458" y="436" type="line"/>
      <point x="458" y="376" type="line"/>
      <point x="339" y="376" type="line"/>
      <point x="339" y="60" type="line"/>
    </contour>
  </outline>
</glyph>
<glyph name="oe" format="1">
  <advance width="500"/>
  <unicode hex="0153"/>
  <outline>
    <contour>
      <point x="490" y="521" type="line"/>
      <point x="402" y="593" type="line"/>
      <point x="298" y="593" type="line"/>
      <point x="258" y="560" type="line"/>
      <point x="225" y="593" type="line"/>
      <point x="99" y="593" type="line"/>
      <point x="13" y="506" type="line"/>
      <point x="13" y="87" type="line"/>
      <point x="99" y="0" type="line"/>
      <point x="225" y="0" type="line"/>
      <point x="257" y="33" type="line"/>
      <point x="296" y="0" type="line"/>
      <point x="474" y="0" type="line"/>
      <point x="474" y="48" type="line"/>
      <point x="326" y="48" type="line"/>
      <point x="311" y="66" type="line"/>
      <point x="311" y="294" type="line"/>
      <point x="490" y="294" type="line"/>
    </contour>
    <contour>
      <point x="210" y="527" type="line"/>
      <point x="210" y="66" type="line"/>
      <point x="190" y="48" type="line"/>
      <point x="134" y="48" type="line"/>
      <point x="114" y="66" type="line"/>
      <point x="114" y="527" type="line"/>
      <point x="134" y="545" type="line"/>
      <point x="190" y="545" type="line"/>
    </contour>
    <contour>
      <point x="389" y="341" type="line"/>
      <point x="311" y="341" type="line"/>
      <point x="311" y="527" type="line"/>
      <point x="326" y="545" type="line"/>
      <point x="374" y="545" type="line"/>
      <point x="389" y="527" type="line"/>
    </contour>
  </outline>
</glyph>
<glyph name="racute" format="1">
  <advance width="500"/>
  <unicode hex="0155"/>
  <outline>
    <contour>
      <point x="377" y="532" type="line"/>
      <point x="342" y="554" type="line"/>
      <point x="239" y="477" type="line"/>
      <point x="239" y="48" type="line"/>
      <point x="397" y="48" type="line"/>
      <point x="397" y="0" type="line"/>
      <point x="49" y="0" type="line"/>
      <point x="49" y="48" type="line"/>
      <point x="138" y="48" type="line"/>
      <point x="138" y="546" type="line"/>
      <point x="59" y="546" type="line"/>
      <point x="59" y="594" type="line"/>
      <point x="238" y="594" type="line"/>
      <point x="238" y="525" type="line"/>
      <point x="347" y="608" type="line"/>
      <point x="478" y="525" type="line"/>
      <point x="478" y="421" type="line"/>
      <point x="377" y="421" type="line"/>
    </contour>
    <contour>
      <point x="208" y="672" type="line"/>
      <point x="269" y="834" type="line"/>
      <point x="327" y="834" type="line"/>
      <point x="345" y="819" type="line"/>
      <point x="252" y="665" type="line"/>
      <point x="215" y="665" type="line"/>
    </contour>
  </outline>
</glyph>
<glyph name="sacute" format="1">
  <advance width="500"/>
  <unicode hex="015B"/>
  <outline>
    <contour>
      <point x="331" y="527" type="line"/>
      <point x="310" y="545" type="line"/>
      <point x="222" y="545" type="line"/>
      <point x="201" y="527" type="line"/>
      <point x="201" y="445" type="line"/>
      <point x="422" y="228" type="line"/>
      <point x="438" y="210" type="line"/>
      <point x="438" y="87" type="line"/>
      <point x="351" y="0" type="line"/>
      <point x="168" y="0" type="line"/>
      <point x="81" y="87" type="line"/>
      <point x="81" y="147" type="line"/>
      <point x="182" y="147" type="line"/>
      <point x="182" y="66" type="line"/>
      <point x="203" y="48" type="line"/>
      <point x="316" y="48" type="line"/>
      <point x="337" y="66" type="line"/>
      <point x="337" y="178" type="line"/>
      <point x="100" y="402" type="line"/>
      <point x="100" y="506" type="line"/>
      <point x="187" y="593" type="line"/>
      <point x="345" y="593" type="line"/>
      <point x="432" y="506" type="line"/>
      <point x="432" y="445" type="line"/>
      <point x="331" y="445" type="line"/>
    </contour>
    <contour>
      <point x="248" y="686" type="line"/>
      <point x="309" y="848" type="line"/>
      <point x="367" y="848" type="line"/>
      <point x="385" y="833" type="line"/>
      <point x="292" y="679" type="line"/>
      <point x="255" y="679" type="line"/>
    </contour>
  </outline>
</glyph>
<glyph name="scaron" format="1">
  <advance width="500"/>
  <unicode hex="0161"/>
  <outline>
    <contour>
      <point x="331" y="527" type="line"/>
      <point x="310" y="545" type="line"/>
      <point x="222" y="545" type="line"/>
      <point x="201" y="527" type="line"/>
      <point x="201" y="445" type="line"/>
      <point x="422" y="228" type="line"/>
      <point x="438" y="210" type="line"/>
      <point x="438" y="87" type="line"/>
      <point x="351" y="0" type="line"/>
      <point x="168" y="0" type="line"/>
      <point x="81" y="87" type="line"/>
      <point x="81" y="147" type="line"/>
      <point x="182" y="147" type="line"/>
      <point x="182" y="66" type="line"/>
      <point x="203" y="48" type="line"/>
      <point x="316" y="48" type="line"/>
      <point x="337" y="66" type="line"/>
      <point x="337" y="178" type="line"/>
      <point x="100" y="402" type="line"/>
      <point x="100" y="506" type="line"/>
      <point x="187" y="593" type="line"/>
      <point x="345" y="593" type="line"/>
      <point x="432" y="506" type="line"/>
      <point x="432" y="445" type="line"/>
      <point x="331" y="445" type="line"/>
    </contour>
    <contour>
      <point x="243" y="676" type="line"/>
      <point x="169" y="841" type="line"/>
      <point x="176" y="848" type="line"/>
      <point x="208" y="848" type="line"/>
      <point x="264" y="737" type="line"/>
      <point x="275" y="737" type="line"/>
      <point x="331" y="848" type="line"/>
      <point x="363" y="848" type="line"/>
      <point x="370" y="841" type="line"/>
      <point x="296" y="676" type="line"/>
    </contour>
  </outline>
</glyph>
<glyph name="zacute" format="1">
  <advance width="500"/>
  <unicode hex="017A"/>
  <outline>
    <contour>
      <point x="427" y="48" type="line"/>
      <point x="427" y="0" type="line"/>
      <point x="59" y="0" type="line"/>
      <point x="59" y="48" type="line"/>
      <point x="312" y="545" type="line"/>
      <point x="84" y="545" type="line"/>
      <point x="84" y="593" type="line"/>
      <point x="420" y="593" type="line"/>
      <point x="420" y="545" type="line"/>
      <point x="421" y="545" type="line"/>
      <point x="173" y="48" type="line"/>
    </contour>
    <contour>
      <point x="230" y="686" type="line"/>
      <point x="291" y="848" type="line"/>
      <point x="349" y="848" type="line"/>
      <point x="367" y="833" type="line"/>
      <point x="274" y="679" type="line"/>
      <point x="237" y="679" type="line"/>
    </contour>
  </outline>
</glyph>
<glyph name="zcaron" format="1">
  <advance width="500"/>
  <unicode hex="017E"/>
  <outline>
    <contour>
      <point x="427" y="48" type="line"/>
      <point x="427" y="0" type="line"/>
      <point x="59" y="0" type="line"/>
      <point x="59" y="48" type="line"/>
      <point x="312" y="545" type="line"/>
      <point x="84" y="545" type="line"/>
      <point x="84" y="593" type="line"/>
      <point x="420" y="593" type="line"/>
      <point x="420" y="545" type="line"/>
      <point x="421" y="545" type="line"/>
      <point x="173" y="48" type="line"/>
    </contour>
    <contour>
      <point x="225" y="676" type="line"/>
      <point x="151" y="841" type="line"/>
      <point x="158" y="848" type="line"/>
      <point x="190" y="848" type="line"/>
      <point x="246" y="737" type="line"/>
      <point x="257" y="737" type="line"/>
      <point x="313" y="848" type="line"/>
      <point x="345" y="848" type="line"/>
      <point x="352" y="841" type="line"/>
      <point x="278" y="676" type="line"/>
    </contour>
  </outline>
</glyph>
<glyph name="dotlessj" format="1">
  <advance width="500"/>
  <unicode hex="0237"/>
  <outline>
    <contour>
      <point x="381" y="593" type="line"/>
      <point x="102" y="593" type="line"/>
      <point x="102" y="545" type="line"/>
      <point x="273" y="545" type="line"/>
      <point x="288" y="530" type="line"/>
      <point x="288" y="-104" type="line"/>
      <point x="272" y="-122" type="line"/>
      <point x="163" y="-122" type="line"/>
      <point x="147" y="-104" type="line"/>
      <point x="147" y="-36" type="line"/>
      <point x="54" y="-36" type="line"/>
      <point x="54" y="-101" type="line"/>
      <point x="138" y="-170" type="line"/>
      <point x="297" y="-170" type="line"/>
      <point x="381" y="-101" type="line"/>
    </contour>
  </outline>
</glyph>
<glyph name="uni0243" format="1">
  <advance width="500"/>
  <unicode hex="0243"/>
  <outline>
    <contour>
      <point x="478" y="355" type="line"/>
      <point x="478" y="87" type="line"/>
      <point x="385" y="0" type="line"/>
      <point x="69" y="0" type="line"/>
      <point x="69" y="194" type="line"/>
      <point x="8" y="194" type="line"/>
      <point x="8" y="252" type="line"/>
      <point x="69" y="252" type="line"/>
      <point x="69" y="790" type="line"/>
      <point x="361" y="790" type="line"/>
      <point x="454" y="703" type="line"/>
      <point x="454" y="472" type="line"/>
      <point x="403" y="425" type="line"/>
    </contour>
    <contour>
      <point x="177" y="442" type="line"/>
      <point x="326" y="442" type="line"/>
      <point x="346" y="460" type="line"/>
      <point x="346" y="712" type="line"/>
      <point x="326" y="730" type="line"/>
      <point x="177" y="730" type="line"/>
    </contour>
    <contour>
      <point x="370" y="367" type="line"/>
      <point x="350" y="385" type="line"/>
      <point x="177" y="385" type="line"/>
      <point x="177" y="252" type="line"/>
      <point x="272" y="252" type="line"/>
      <point x="272" y="194" type="line"/>
      <point x="177" y="194" type="line"/>
      <point x="177" y="60" type="line"/>
      <point x="350" y="60" type="line"/>
      <point x="370" y="78" type="line"/>
    </contour>
  </outline>
</glyph>
<glyph name="circumflex" format="1">
  <advance width="500"/>
  <unicode hex="02C6"/>
  <outline>
    <contour>
      <point x="313" y="662" type="line"/>
      <point x="345" y="662" type="line"/>
      <point x="352" y="669" type="line"/>
      <point x="278" y="834" type="line"/>
      <point x="225" y="834" type="line"/>
      <point x="151" y="669" type="line"/>
      <point x="158" y="662" type="line"/>
      <point x="190" y="662" type="line"/>
      <point x="251" y="784" type="line" smooth="yes"/>
    </contour>
    <contour>
      <point x="236" y="773" type="line"/>
      <point x="264" y="773" type="line"/>
      <point x="264" y="789" type="line"/>
      <point x="236" y="789" type="line"/>
    </contour>
    <contour>
      <point x="252.0" y="651.0" type="move" name="_top"/>
    </contour>
  </outline>
</glyph>
<glyph name="caron" format="1">
  <advance width="500"/>
  <unicode hex="02C7"/>
  <outline>
    <contour>
      <point x="277" y="559" type="line"/>
      <point x="276" y="560" type="line"/>
      <point x="387" y="703" type="line"/>
      <point x="367" y="719" type="line"/>
      <point x="259" y="582" type="line"/>
      <point x="150" y="719" type="line"/>
      <point x="130" y="703" type="line"/>
      <point x="241" y="560" type="line"/>
      <point x="240" y="559" type="line"/>
      <point x="247" y="552" type="line"/>
      <point x="257" y="539" type="line"/>
      <point x="259" y="541" type="line"/>
      <point x="260" y="539" type="line"/>
      <point x="270" y="552" type="line"/>
    </contour>
  </outline>
</glyph>
<glyph name="breve" format="1">
  <advance width="500"/>
  <unicode hex="02D8"/>
  <outline>
    <contour>
      <point x="345" y="699" type="line"/>
      <point x="345" y="726" type="line"/>
      <point x="293" y="726" type="line"/>
      <point x="293" y="689" type="line"/>
      <point x="282" y="679" type="line"/>
      <point x="186" y="679" type="line"/>
      <point x="175" y="689" type="line"/>
      <point x="175" y="725" type="line"/>
      <point x="123" y="725" type="line"/>
      <point x="123" y="699" type="line"/>
      <point x="168" y="660" type="line"/>
      <point x="300" y="660" type="line"/>
    </contour>
  </outline>
</glyph>
<glyph name="dotaccent" format="1">
  <advance width="500"/>
  <unicode hex="02D9"/>
  <outline>
    <contour>
      <point x="183" y="700" type="line"/>
      <point x="314" y="700" type="line"/>
      <point x="314" y="838" type="line"/>
      <point x="183" y="838" type="line"/>
    </contour>
    <contour>
      <point x="252.0" y="651.0" type="move" name="_top"/>
    </contour>
  </outline>
</glyph>
<glyph name="hungarumlaut" format="1">
  <advance width="500"/>
  <unicode hex="02DD"/>
  <outline>
    <contour>
      <point x="280" y="665" type="line"/>
      <point x="312" y="665" type="line"/>
      <point x="400" y="819" type="line"/>
      <point x="382" y="834" type="line"/>
      <point x="329" y="834" type="line"/>
      <point x="273" y="672" type="line"/>
    </contour>
    <contour>
      <point x="123" y="672" type="line"/>
      <point x="130" y="665" type="line"/>
      <point x="162" y="665" type="line"/>
      <point x="250" y="819" type="line"/>
      <point x="232" y="834" type="line"/>
      <point x="179" y="834" type="line"/>
    </contour>
    <contour>
      <point x="211" y="651" type="move" name="_top"/>
    </contour>
  </outline>
</glyph>
<glyph name="wgrave" format="1">
  <advance width="500"/>
  <unicode hex="1E81"/>
  <outline>
    <contour>
      <point x="474" y="593" type="line"/>
      <point x="474" y="537" type="line"/>
      <point x="390" y="0" type="line"/>
      <point x="272" y="0" type="line"/>
      <point x="243" y="229" type="line"/>
      <point x="199" y="0" type="line"/>
      <point x="96" y="0" type="line"/>
      <point x="18" y="537" type="line"/>
      <point x="18" y="593" type="line"/>
      <point x="117" y="593" type="line"/>
      <point x="117" y="537" type="line"/>
      <point x="171" y="81" type="line"/>
      <point x="221" y="400" type="line"/>
      <point x="203" y="537" type="line"/>
      <point x="203" y="593" type="line"/>
      <point x="274" y="593" type="line"/>
      <point x="274" y="537" type="line"/>
      <point x="323" y="92" type="line"/>
      <point x="375" y="537" type="line"/>
      <point x="375" y="593" type="line"/>
    </contour>
    <contour>
      <point x="260" y="686" type="line"/>
      <point x="253" y="679" type="line"/>
      <point x="216" y="679" type="line"/>
      <point x="123" y="833" type="line"/>
      <point x="141" y="848" type="line"/>
      <point x="199" y="848" type="line"/>
    </contour>
  </outline>
</glyph>
<glyph name="ygrave" format="1">
  <advance width="500"/>
  <unicode hex="1EF3"/>
  <outline>
    <contour>
      <point x="454" y="537" type="line"/>
      <point x="343" y="0" type="line"/>
      <point x="302" y="-199" type="line"/>
      <point x="205" y="-199" type="line"/>
      <point x="251" y="0" type="line"/>
      <point x="176" y="0" type="line"/>
      <point x="44" y="537" type="line"/>
      <point x="42" y="593" type="line"/>
      <point x="144" y="593" type="line"/>
      <point x="144" y="537" type="line"/>
      <point x="255" y="48" type="line"/>
      <point x="271" y="48" type="line"/>
      <point x="353" y="537" type="line"/>
      <point x="353" y="593" type="line"/>
      <point x="454" y="593" type="line"/>
    </contour>
    <contour>
      <point x="287" y="686" type="line"/>
      <point x="280" y="679" type="line"/>
      <point x="243" y="679" type="line"/>
      <point x="150" y="833" type="line"/>
      <point x="168" y="848" type="line"/>
      <point x="226" y="848" type="line"/>
    </contour>
  </outline>
</glyph>
<glyph name="endash" format="1">
  <advance width="500"/>
  <unicode hex="2013"/>
  <outline>
    <contour>
      <point x="405" y="319" type="line"/>
      <point x="405" y="264" type="line"/>
      <point x="95" y="264" type="line"/>
      <point x="95" y="319" type="line"/>
    </contour>
  </outline>
</glyph>
<glyph name="emdash" format="1">
  <advance width="500"/>
  <unicode hex="2014"/>
  <outline>
    <contour>
      <point x="475" y="319" type="line"/>
      <point x="475" y="264" type="line"/>
      <point x="25" y="264" type="line"/>
      <point x="25" y="319" type="line"/>
    </contour>
  </outline>
</glyph>
<glyph name="quoteleft" format="1">
  <advance width="500"/>
  <unicode hex="2018"/>
  <outline>
    <contour>
      <point x="304" y="794" type="line"/>
      <point x="175" y="794"/>
      <point x="156" y="710"/>
      <point x="156" y="617" type="curve" smooth="yes"/>
      <point x="156" y="530" type="line"/>
      <point x="300" y="530" type="line"/>
      <point x="300" y="667" type="line"/>
      <point x="206" y="667" type="line"/>
      <point x="210" y="713"/>
      <point x="237" y="754"/>
      <point x="304" y="754" type="curve"/>
    </contour>
  </outline>
</glyph>
<glyph name="quoteright" format="1">
  <advance width="500"/>
  <unicode hex="2019"/>
  <outline>
    <contour>
      <point x="304" y="790" type="line"/>
      <point x="160" y="790" type="line"/>
      <point x="160" y="653" type="line"/>
      <point x="254" y="653" type="line"/>
      <point x="250" y="607"/>
      <point x="223" y="566"/>
      <point x="156" y="566" type="curve"/>
      <point x="156" y="526" type="line"/>
      <point x="285" y="526"/>
      <point x="304" y="610"/>
      <point x="304" y="703" type="curve" smooth="yes"/>
    </contour>
  </outline>
</glyph>
<glyph name="quotesinglbase" format="1">
  <advance width="500"/>
  <unicode hex="201A"/>
  <outline>
    <contour>
      <point x="322" y="137" type="line"/>
      <point x="178" y="137" type="line"/>
      <point x="178" y="0" type="line"/>
      <point x="272" y="0" type="line"/>
      <point x="268" y="-46"/>
      <point x="241" y="-87"/>
      <point x="174" y="-87" type="curve"/>
      <point x="174" y="-127" type="line"/>
      <point x="303" y="-127"/>
      <point x="322" y="-43"/>
      <point x="322" y="50" type="curve" smooth="yes"/>
    </contour>
  </outline>
</glyph>
<glyph name="quotedblleft" format="1">
  <advance width="500"/>
  <unicode hex="201C"/>
  <outline>
    <contour>
      <point x="55" y="532" type="line"/>
      <point x="199" y="532" type="line"/>
      <point x="199" y="669" type="line"/>
      <point x="105" y="669" type="line"/>
      <point x="109" y="715"/>
      <point x="136" y="756"/>
      <point x="203" y="756" type="curve"/>
      <point x="203" y="796" type="line"/>
      <point x="74" y="796"/>
      <point x="55" y="712"/>
      <point x="55" y="619" type="curve" smooth="yes"/>
    </contour>
    <contour>
      <point x="429" y="796" type="line"/>
      <point x="300" y="796"/>
      <point x="281" y="712"/>
      <point x="281" y="619" type="curve" smooth="yes"/>
      <point x="281" y="532" type="line"/>
      <point x="425" y="532" type="line"/>
      <point x="425" y="669" type="line"/>
      <point x="331" y="669" type="line"/>
      <point x="335" y="715"/>
      <point x="362" y="756"/>
      <point x="429" y="756" type="curve"/>
    </contour>
  </outline>
</glyph>
<glyph name="quotedblright" format="1">
  <advance width="500"/>
  <unicode hex="201D"/>
  <outline>
    <contour>
      <point x="59" y="790" type="line"/>
      <point x="59" y="653" type="line"/>
      <point x="153" y="653" type="line"/>
      <point x="149" y="607"/>
      <point x="122" y="566"/>
      <point x="55" y="566" type="curve"/>
      <point x="55" y="526" type="line"/>
      <point x="184" y="526"/>
      <point x="203" y="610"/>
      <point x="203" y="703" type="curve" smooth="yes"/>
      <point x="203" y="790" type="line"/>
    </contour>
    <contour>
      <point x="429" y="790" type="line"/>
      <point x="285" y="790" type="line"/>
      <point x="285" y="653" type="line"/>
      <point x="379" y="653" type="line"/>
      <point x="375" y="607"/>
      <point x="348" y="566"/>
      <point x="281" y="566" type="curve"/>
      <point x="281" y="526" type="line"/>
      <point x="410" y="526"/>
      <point x="429" y="610"/>
      <point x="429" y="703" type="curve" smooth="yes"/>
    </contour>
  </outline>
</glyph>
<glyph name="quotedblbase" format="1">
  <advance width="500"/>
  <unicode hex="201E"/>
  <outline>
    <contour>
      <point x="59" y="137" type="line"/>
      <point x="59" y="0" type="line"/>
      <point x="153" y="0" type="line"/>
      <point x="149" y="-46"/>
      <point x="122" y="-87"/>
      <point x="55" y="-87" type="curve"/>
      <point x="55" y="-127" type="line"/>
      <point x="184" y="-127"/>
      <point x="203" y="-43"/>
      <point x="203" y="50" type="curve" smooth="yes"/>
      <point x="203" y="137" type="line"/>
    </contour>
    <contour>
      <point x="429" y="137" type="line"/>
      <point x="285" y="137" type="line"/>
      <point x="285" y="0" type="line"/>
      <point x="379" y="0" type="line"/>
      <point x="375" y="-46"/>
      <point x="348" y="-87"/>
      <point x="281" y="-87" type="curve"/>
      <point x="281" y="-127" type="line"/>
      <point x="410" y="-127"/>
      <point x="429" y="-43"/>
      <point x="429" y="50" type="curve" smooth="yes"/>
    </contour>
  </outline>
</glyph>
<glyph name="bullet" format="1">
  <advance width="500"/>
  <unicode hex="2022"/>
  <outline>
    <contour>
      <point x="334" y="143"/>
      <point x="403" y="212"/>
      <point x="403" y="297" type="curve" smooth="yes"/>
      <point x="403" y="381"/>
      <point x="334" y="450"/>
      <point x="249" y="450" type="curve" smooth="yes"/>
      <point x="165" y="450"/>
      <point x="96" y="381"/>
      <point x="96" y="297" type="curve" smooth="yes"/>
      <point x="96" y="212"/>
      <point x="165" y="143"/>
      <point x="249" y="143" type="curve" smooth="yes"/>
    </contour>
  </outline>
</glyph>
<glyph name="ellipsis" format="1">
  <advance width="500"/>
  <unicode hex="2026"/>
  <outline>
    <contour>
      <point x="132" y="115" type="line"/>
      <point x="33" y="115" type="line"/>
      <point x="33" y="0" type="line"/>
      <point x="132" y="0" type="line"/>
    </contour>
    <contour>
      <point x="300" y="115" type="line"/>
      <point x="200" y="115" type="line"/>
      <point x="200" y="0" type="line"/>
      <point x="300" y="0" type="line"/>
    </contour>
    <contour>
      <point x="465" y="115" type="line"/>
      <point x="366" y="115" type="line"/>
      <point x="366" y="0" type="line"/>
      <point x="465" y="0" type="line"/>
    </contour>
  </outline>
</glyph>
<glyph name="perthousand" format="1">
  <advance width="500"/>
  <unicode hex="2030"/>
  <outline>
    <contour>
      <point x="377" y="491" type="line"/>
      <point x="276" y="593" type="line"/>
      <point x="179" y="496" type="line"/>
      <point x="280" y="394" type="line"/>
    </contour>
  </outline>
</glyph>
<glyph name="fraction" format="1">
  <advance width="500"/>
  <unicode hex="2044"/>
  <outline>
    <contour>
      <point x="292" y="379" type="line"/>
      <point x="251" y="379" type="line"/>
      <point x="368" y="680" type="line"/>
      <point x="443" y="680" type="line"/>
    </contour>
    <contour>
      <point x="188" y="301" type="line"/>
      <point x="229" y="301" type="line"/>
      <point x="112" y="0" type="line"/>
      <point x="37" y="0" type="line"/>
    </contour>
  </outline>
</glyph>
<glyph name="euro" format="1">
  <advance width="500"/>
  <unicode hex="20AC"/>
  <outline>
    <contour>
      <point x="22" y="326" type="line"/>
      <point x="22" y="276" type="line"/>
      <point x="314" y="276" type="line"/>
      <point x="314" y="326" type="line"/>
    </contour>
    <contour>
      <point x="216" y="629" type="line"/>
      <point x="409" y="629" type="line"/>
      <point x="409" y="681" type="line"/>
      <point x="184" y="681" type="line"/>
      <point x="91" y="594" type="line"/>
      <point x="91" y="88" type="line"/>
      <point x="184" y="1" type="line"/>
      <point x="409" y="1" type="line" smooth="yes"/>
      <point x="409" y="53" type="line"/>
      <point x="216" y="53" type="line"/>
      <point x="196" y="71" type="line"/>
      <point x="196" y="611" type="line"/>
    </contour>
    <contour>
      <point x="35" y="427" type="line"/>
      <point x="35" y="377" type="line"/>
      <point x="327" y="377" type="line"/>
      <point x="327" y="427" type="line"/>
    </contour>
  </outline>
</glyph>
<glyph name="minus" format="1">
  <advance width="500"/>
  <unicode hex="2212"/>
  <outline>
    <contour>
      <point x="450" y="361" type="line"/>
      <point x="450" y="306" type="line"/>
      <point x="50" y="306" type="line"/>
      <point x="50" y="361" type="line"/>
    </contour>
  </outline>
</glyph>
<glyph name=".notdef" format="1">
  <advance width="500"/>
  <outline>
    <contour>
      <point x="49" y="178" type="line"/>
      <point x="8" y="178" type="line"/>
      <point x="8" y="120" type="line"/>
      <point x="49" y="120" type="line"/>
    </contour>
    <contour>
      <point x="49" y="501" type="line"/>
      <point x="49" y="561" type="line"/>
      <point x="8" y="561" type="line"/>
      <point x="8" y="501" type="line"/>
    </contour>
    <contour>
      <point x="312" y="619" type="line"/>
      <point x="176" y="619" type="line"/>
      <point x="176" y="561" type="line"/>
      <point x="112" y="561" type="line"/>
      <point x="112" y="501" type="line"/>
      <point x="49" y="501" type="line"/>
      <point x="49" y="441" type="line"/>
      <point x="112" y="441" type="line"/>
      <point x="112" y="239" type="line"/>
      <point x="49" y="239" type="line"/>
      <point x="49" y="178" type="line"/>
      <point x="112" y="178" type="line"/>
      <point x="112" y="120" type="line"/>
      <point x="176" y="120" type="line"/>
      <point x="176" y="62" type="line"/>
      <point x="312" y="62" type="line"/>
      <point x="312" y="120" type="line"/>
      <point x="441" y="120" type="line"/>
      <point x="441" y="179" type="line"/>
      <point x="369" y="179" type="line"/>
      <point x="369" y="501" type="line"/>
      <point x="441" y="501" type="line"/>
      <point x="441" y="561" type="line"/>
      <point x="312" y="561" type="line"/>
    </contour>
    <contour>
      <point x="175" y="296" type="line"/>
      <point x="307" y="296" type="line"/>
      <point x="307" y="239" type="line"/>
      <point x="175" y="239" type="line"/>
    </contour>
    <contour>
      <point x="191" y="379" type="line"/>
      <point x="191" y="457" type="line"/>
      <point x="290" y="457" type="line"/>
      <point x="290" y="379" type="line"/>
    </contour>
    <contour>
      <point x="312" y="62" type="line"/>
      <point x="312" y="2" type="line"/>
      <point x="441" y="2" type="line"/>
      <point x="441" y="62" type="line"/>
    </contour>
    <contour>
      <point x="441" y="680" type="line"/>
      <point x="312" y="680" type="line"/>
      <point x="312" y="619" type="line"/>
      <point x="441" y="619" type="line"/>
    </contour>
    <contour>
      <point x="441" y="179" type="line"/>
      <point x="480" y="179" type="line"/>
      <point x="480" y="300" type="line"/>
      <point x="441" y="300" type="line"/>
    </contour>
    <contour>
      <point x="441" y="501" type="line"/>
      <point x="441" y="380" type="line"/>
      <point x="480" y="380" type="line"/>
      <point x="480" y="501" type="line"/>
    </contour>
  </outline>
</glyph>
<glyph name="acute.cap" format="1">
  <advance width="500"/>
  <outline>
    <contour>
      <point x="215" y="857" type="line"/>
      <point x="222" y="850" type="line"/>
      <point x="259" y="850" type="line"/>
      <point x="352" y="1004" type="line"/>
      <point x="334" y="1019" type="line"/>
      <point x="276" y="1019" type="line"/>
    </contour>
    <contour>
      <point x="235" y="824" type="move" name="_top"/>
    </contour>
  </outline>
</glyph>
<glyph name="breve.case" format="1">
  <advance width="500"/>
  <outline>
    <contour>
      <point x="345" y="699" type="line"/>
      <point x="345" y="726" type="line"/>
      <point x="293" y="726" type="line"/>
      <point x="293" y="689" type="line"/>
      <point x="282" y="679" type="line"/>
      <point x="186" y="679" type="line"/>
      <point x="175" y="689" type="line"/>
      <point x="175" y="725" type="line"/>
      <point x="123" y="725" type="line"/>
      <point x="123" y="699" type="line"/>
      <point x="168" y="660" type="line"/>
      <point x="300" y="660" type="line"/>
    </contour>
  </outline>
</glyph>
<glyph name="cedilla.cap" format="1">
  <advance width="500"/>
  <outline>
    <contour>
      <point x="347" y="-147" type="line"/>
      <point x="347" y="-82" type="line"/>
      <point x="297" y="-37" type="line"/>
      <point x="195" y="-37" type="line"/>
      <point x="195" y="-62" type="line"/>
      <point x="279" y="-62" type="line"/>
      <point x="290" y="-72" type="line"/>
      <point x="290" y="-157" type="line"/>
      <point x="279" y="-167" type="line"/>
      <point x="223" y="-167" type="line"/>
      <point x="212" y="-157" type="line"/>
      <point x="212" y="-128" type="line"/>
      <point x="168" y="-128" type="line"/>
      <point x="168" y="-147" type="line"/>
      <point x="205" y="-191" type="line"/>
      <point x="297" y="-191" type="line"/>
    </contour>
    <contour>
      <point x="251" y="-26" type="move" name="_bottom"/>
    </contour>
  </outline>
</glyph>
<glyph name="cedilla.case" format="1">
  <advance width="500"/>
  <outline>
    <contour>
      <point x="347" y="-147" type="line"/>
      <point x="347" y="-82" type="line"/>
      <point x="297" y="-37" type="line"/>
      <point x="195" y="-37" type="line"/>
      <point x="195" y="-62" type="line"/>
      <point x="279" y="-62" type="line"/>
      <point x="290" y="-72" type="line"/>
      <point x="290" y="-157" type="line"/>
      <point x="279" y="-167" type="line"/>
      <point x="223" y="-167" type="line"/>
      <point x="212" y="-157" type="line"/>
      <point x="212" y="-128" type="line"/>
      <point x="168" y="-128" type="line"/>
      <point x="168" y="-147" type="line"/>
      <point x="205" y="-191" type="line"/>
      <point x="297" y="-191" type="line"/>
    </contour>
  </outline>
</glyph>
<glyph name="circumflex.cap" format="1">
  <advance width="500"/>
  <outline>
    <contour>
      <point x="376" y="846" type="line"/>
      <point x="408" y="846" type="line"/>
      <point x="415" y="853" type="line"/>
      <point x="415" y="853"/>
      <point x="334" y="1019"/>
      <point x="334" y="1019" type="curve"/>
      <point x="276" y="1019" type="line"/>
      <point x="276" y="1019"/>
      <point x="195" y="853"/>
      <point x="195" y="853" type="curve"/>
      <point x="202" y="846" type="line"/>
      <point x="234" y="846" type="line"/>
      <point x="305" y="953" type="line"/>
    </contour>
    <contour>
      <point x="308" y="843" type="move" name="_top"/>
    </contour>
  </outline>
</glyph>
<glyph name="grave.cap" format="1">
  <advance width="500"/>
  <outline>
    <contour>
      <point x="239" y="1019" type="line"/>
      <point x="300" y="857" type="line"/>
      <point x="293" y="850" type="line"/>
      <point x="256" y="850" type="line"/>
      <point x="163" y="1004" type="line"/>
      <point x="181" y="1019" type="line"/>
    </contour>
  </outline>
</glyph>
<glyph name="grave.case" format="1">
  <advance width="500"/>
  <outline>
    <contour>
      <point x="262" y="829" type="line"/>
      <point x="287" y="866" type="line"/>
      <point x="106" y="985" type="line"/>
      <point x="80" y="946" type="line"/>
    </contour>
  </outline>
</glyph>
<glyph name="i.dot" format="1">
  <advance width="500"/>
  <outline>
    <contour>
      <point x="450" y="0" type="line"/>
      <point x="50" y="0" type="line"/>
      <point x="50" y="48" type="line"/>
      <point x="184" y="48" type="line"/>
      <point x="200" y="66" type="line"/>
      <point x="200" y="528" type="line"/>
      <point x="184" y="546" type="line"/>
      <point x="68" y="546" type="line"/>
      <point x="68" y="594" type="line"/>
      <point x="300" y="594" type="line"/>
      <point x="300" y="66" type="line"/>
      <point x="316" y="48" type="line"/>
      <point x="450" y="48" type="line"/>
    </contour>
    <contour>
      <point x="313" y="831" type="line"/>
      <point x="313" y="693" type="line"/>
      <point x="185" y="693" type="line"/>
      <point x="185" y="831" type="line"/>
    </contour>
  </outline>
</glyph>
